<svg xmlns="http://www.w3.org/2000/svg" width="505" height="15" fill="none" viewBox="0 0 505 15">
    <path fill="#26BED6" d="M11.995 4.756a.726.726 0 0 0-.216-.515l-1.053-1.03a.759.759 0 0 0-1.052 0L4.597 8.186 2.322 5.952a.759.759 0 0 0-1.053 0L.217 6.982A.726.726 0 0 0 0 7.497c0 .19.077.379.217.515l2.801 2.741 1.053 1.03a.759.759 0 0 0 1.052 0l1.053-1.03 5.603-5.482a.726.726 0 0 0 .216-.515zM104.958 4.756a.726.726 0 0 0-.216-.515l-1.053-1.03a.759.759 0 0 0-1.052 0L97.56 8.186l-2.275-2.234a.759.759 0 0 0-1.053 0l-1.052 1.03a.726.726 0 0 0-.217.515c0 .19.077.379.217.515l2.801 2.741 1.053 1.03a.759.759 0 0 0 1.052 0l1.053-1.03 5.603-5.482a.726.726 0 0 0 .216-.515zM197.921 4.756a.726.726 0 0 0-.216-.515l-1.053-1.03a.759.759 0 0 0-1.052 0l-5.077 4.975-2.275-2.234a.759.759 0 0 0-1.053 0l-1.052 1.03a.726.726 0 0 0-.217.515c0 .19.077.379.217.515l2.801 2.741 1.053 1.03a.759.759 0 0 0 1.052 0l1.053-1.03 5.603-5.482a.726.726 0 0 0 .216-.515z" opacity=".7"/>
    <circle cx="7.5" cy="7.5" r="7.5" fill="#26BED6" transform="matrix(.9996 0 0 .9996 276.89 0)"/>
    <path fill="#fff" d="M284.11 3.667c-.993 1.562-1.986 3.19-2.845 4.8v1.17h3.543v1.359h1.364V9.637h.897v-1.17h-.897v-4.8h-2.062zm-1.53 4.8V8.45a49.304 49.304 0 0 1 2.18-3.689h.048v3.705h-2.228z"/>
    <circle cx="7.5" cy="7.5" r="7.5" fill="#BDBDBD" transform="matrix(.9996 0 0 .9996 369.853 0)"/>
    <path fill="#fff" d="M374.459 9.025c.043 1.144.966 2.11 2.63 2.11 1.627 0 2.82-1.02 2.82-2.614 0-1.493-1.128-2.427-2.411-2.427-.854 0-1.407.386-1.574.628h-.048l.183-1.89h3.312v-1.17H374.9l-.349 4.31h1.272c.167-.359.58-.778 1.31-.778.763 0 1.359.548 1.359 1.391 0 .891-.693 1.407-1.364 1.407-.72 0-1.24-.37-1.331-.967h-1.337z"/>
    <circle cx="7.5" cy="7.5" r="7.5" fill="#BDBDBD" transform="matrix(.9996 0 0 .9996 462.817 0)"/>
    <path fill="#fff" d="M472.538 5.487c-.053-.902-.87-1.949-2.405-1.949-1.756 0-2.9 1.375-2.9 3.962 0 1.192.275 2.1.763 2.712.494.612 1.197.923 2.067.923 1.471 0 2.652-.929 2.652-2.555 0-1.547-1.127-2.39-2.324-2.39-.977 0-1.536.57-1.734 1.058h-.054c0-1.568.553-2.572 1.492-2.572.65 0 1.037.435 1.085.811h1.358zm-3.763 3.152c0-.849.569-1.359 1.283-1.359.671 0 1.278.478 1.278 1.359 0 .886-.59 1.353-1.273 1.353-.698 0-1.288-.494-1.288-1.353z"/>
    <path fill="#26BED6" d="M17.922 3.672v7.324h2.212c2.164 0 3.227-1.289 3.227-3.662 0-2.378-1.074-3.662-3.227-3.662h-2.212zm.752.688h1.439c1.67 0 2.47 1.025 2.47 2.974 0 1.949-.8 2.974-2.47 2.974h-1.44V4.36zm7.852 6.727c1.224 0 1.943-.698 2.137-1.568h-.752c-.166.532-.612.929-1.364.929-.993 0-1.578-.773-1.578-1.949v-.134h3.774v-.467c0-1.579-.837-2.61-2.26-2.61-1.439 0-2.26 1.037-2.26 2.55v.64c0 1.589.864 2.609 2.303 2.609zM24.969 7.72v-.017c0-1.02.59-1.771 1.514-1.771.913 0 1.514.751 1.514 1.771v.017h-3.028zm7.342 3.366c1.278 0 2.228-.956 2.228-2.577v-.64c0-1.615-.94-2.582-2.196-2.582-.859 0-1.417.478-1.707.961h-.022v-.864h-.703v7.458h.74V10.18h.022c.285.483.827.907 1.638.907zm-.032-.66c-1.02 0-1.643-.811-1.643-1.992v-.532c0-1.127.606-1.96 1.621-1.96.95 0 1.541.725 1.541 1.965v.521c0 1.31-.639 1.998-1.52 1.998zm6.6-.183h.022v.752h.72v-3.92c0-1.143-.833-1.788-2.003-1.788-1.289 0-1.949.677-2.019 1.638h.704c.075-.601.499-.993 1.288-.993.81 0 1.289.424 1.289 1.235V7.8h-1.552c-1.278.005-1.949.628-1.949 1.595 0 1.025.746 1.69 1.83 1.69.892 0 1.418-.407 1.67-.842zm-1.497.204c-.66 0-1.235-.36-1.235-1.074 0-.564.36-.966 1.208-.966h1.525v.714c0 .784-.65 1.326-1.498 1.326zm3.6.548h.74V7.533c0-.87.366-1.547 1.375-1.547.172 0 .354.011.435.027v-.692a3.287 3.287 0 0 0-.35-.022c-.847 0-1.266.462-1.438.848h-.021v-.762h-.742v5.61zm4.013-5.61h-.79v.633h.79v3.479c0 1.068.252 1.551 1.503 1.551.193 0 .381-.021.467-.043V10.4c-.086.01-.177.016-.284.016-.714 0-.95-.177-.95-.865V6.02h1.186v-.634H45.73V3.984h-.735v1.401z" opacity=".7"/>
    <path stroke="#26BED6" stroke-width=".4998" d="M52.979 7.747h33.987M144.943 7.497h34.986M239.905 7.497h32.987"/>
    <path fill="#26BED6" d="M114.435 3.672h-2.55v7.324h.751V7.989h1.928l1.428 3.007h.864l-1.54-3.163c.708-.23 1.412-.837 1.412-2.024 0-1.143-.736-2.137-2.293-2.137zm-1.799 3.635V4.354h1.702c.988 0 1.617.526 1.617 1.504 0 .918-.575 1.45-1.649 1.45h-1.67zm7.337 3.78c1.224 0 1.944-.698 2.137-1.568h-.752c-.166.532-.612.929-1.363.929-.994 0-1.579-.773-1.579-1.949v-.134h3.774v-.467c0-1.579-.837-2.61-2.26-2.61-1.439 0-2.26 1.037-2.26 2.55v.64c0 1.589.864 2.609 2.303 2.609zm-1.557-3.366v-.017c0-1.02.59-1.771 1.514-1.771.913 0 1.514.751 1.514 1.771v.017h-3.028zm5.248-2.336h-.789v.634h.79v3.479c0 1.068.252 1.551 1.502 1.551.194 0 .382-.021.468-.043V10.4c-.086.01-.178.016-.285.016-.714 0-.95-.177-.95-.865V6.02h1.186v-.634H124.4V3.984h-.736v1.401zm7.283 0h-.746v3.463c0 .934-.59 1.557-1.509 1.557-.81 0-1.428-.403-1.428-1.46v-3.56h-.74v3.77c0 1.277.837 1.932 1.98 1.932.93 0 1.471-.43 1.67-.891h.032v.8h.741v-5.61zm1.41 5.61h.74V7.534c0-.87.365-1.547 1.375-1.547.172 0 .354.011.435.027v-.692a3.287 3.287 0 0 0-.35-.022c-.848 0-1.266.462-1.438.848h-.022v-.762h-.74v5.61zm3.519 0h.74V7.56c0-.822.462-1.59 1.515-1.59.89 0 1.455.559 1.455 1.52v3.506h.74V7.382c0-1.358-.853-2.094-2.007-2.094-.94 0-1.472.5-1.681.902h-.021v-.805h-.741v5.61zM207.398 3.672h-2.55v7.324h.751V7.989h1.928l1.428 3.007h.864l-1.54-3.163c.708-.23 1.412-.837 1.412-2.024 0-1.143-.736-2.137-2.293-2.137zM205.6 7.307V4.354h1.702c.988 0 1.617.526 1.617 1.504 0 .918-.575 1.45-1.649 1.45h-1.67zm7.337 3.78c1.224 0 1.944-.698 2.137-1.568h-.752c-.166.532-.612.929-1.363.929-.994 0-1.579-.773-1.579-1.949v-.134h3.774v-.467c0-1.579-.837-2.61-2.26-2.61-1.439 0-2.26 1.037-2.26 2.55v.64c0 1.589.864 2.609 2.303 2.609zM211.38 7.72v-.017c0-1.02.59-1.771 1.514-1.771.913 0 1.514.751 1.514 1.771v.017h-3.028zm6.134 3.275h.79l2.034-5.61h-.746l-1.675 4.675h-.027l-1.595-4.676h-.778l1.997 5.61zm3.487 0h.741v-5.61h-.74v5.61zM220.855 4c0 .29.231.52.516.52.284 0 .52-.23.52-.52a.52.52 0 0 0-.52-.516.516.516 0 0 0-.516.516zm4.421 7.087c1.225 0 1.944-.698 2.137-1.568h-.751c-.167.532-.612.929-1.364.929-.993 0-1.579-.773-1.579-1.949v-.134h3.775v-.467c0-1.579-.838-2.61-2.26-2.61-1.44 0-2.26 1.037-2.26 2.55v.64c0 1.589.864 2.609 2.302 2.609zM223.72 7.72v-.017c0-1.02.591-1.771 1.514-1.771.913 0 1.515.751 1.515 1.771v.017h-3.029zm11.579-2.336h-.758l-1.122 4.612h-.032l-1.374-4.612h-.714l-1.37 4.612h-.037l-1.122-4.612h-.757l1.487 5.61h.768l1.38-4.53h.021l1.375 4.53h.767l1.488-5.61z" opacity=".7"/>
    <path fill="#26BED6" d="M297.43 10.996l.58-1.885h2.442l.574 1.885h1.541l-2.443-7.329h-1.701l-2.46 7.329h1.466zm1.84-5.928l.892 2.964h-1.852l.896-2.964h.065zm5.732.156c-1.358 0-2.18 1.052-2.18 2.68v.477c0 1.654.795 2.684 2.18 2.684.779 0 1.375-.365 1.643-.95h.06v.88h1.39V3.28h-1.418v2.851h-.053c-.253-.537-.849-.907-1.622-.907zm.451 1.133c.752 0 1.235.596 1.235 1.594v.398c0 1.036-.478 1.589-1.224 1.589-.693 0-1.192-.526-1.192-1.595v-.392c0-1.068.5-1.594 1.181-1.594zm5.71-1.133c-1.358 0-2.18 1.052-2.18 2.68v.477c0 1.654.795 2.684 2.18 2.684.778 0 1.374-.365 1.643-.95h.059v.88h1.39V3.28h-1.417v2.851h-.054c-.252-.537-.848-.907-1.621-.907zm.451 1.133c.752 0 1.235.596 1.235 1.594v.398c0 1.036-.478 1.589-1.224 1.589-.693 0-1.192-.526-1.192-1.595v-.392c0-1.068.499-1.594 1.181-1.594zm7.565-1.133c-1.359 0-2.18 1.052-2.18 2.68v.477c0 1.654.794 2.684 2.18 2.684.778 0 1.374-.365 1.643-.95h.059v.88h1.39V3.28h-1.417v2.851h-.054c-.252-.537-.848-.907-1.621-.907zm.45 1.133c.752 0 1.236.596 1.236 1.594v.398c0 1.036-.478 1.589-1.225 1.589-.692 0-1.192-.526-1.192-1.595v-.392c0-1.068.5-1.594 1.182-1.594zm6.108 4.74c1.525 0 2.265-.907 2.4-1.82h-1.31c-.118.462-.516.741-1.08.741-.719 0-1.208-.547-1.208-1.412v-.155h3.651v-.559c0-1.637-.96-2.695-2.512-2.695-1.498 0-2.524.988-2.524 2.658v.52c0 1.746 1.02 2.723 2.583 2.723zm-1.198-3.543v-.01c0-.73.457-1.295 1.15-1.295.687 0 1.132.559 1.132 1.294v.011h-2.282zm4.948-2.255h-.832v1.095h.805v2.991c0 1.165.467 1.643 1.885 1.643.284 0 .536-.027.644-.048V9.933c-.065.005-.183.01-.3.01-.586 0-.828-.171-.828-.74V6.393h1.106V5.3h-1.106V3.935h-1.374V5.3zm6.435 5.004h.059v.693h1.336v-3.85c0-1.326-.998-1.938-2.308-1.938-1.643 0-2.255.88-2.298 1.83h1.32c.038-.456.371-.762.951-.762.596 0 .94.317.94.886v.516h-1.391c-1.32 0-2.03.655-2.03 1.675 0 1.074.763 1.729 1.874 1.729.838 0 1.321-.36 1.547-.779zm-1.09-.252c-.473 0-.924-.258-.924-.79 0-.434.306-.735.929-.735h1.085v.601c0 .553-.484.924-1.09.924zm3.578.945h1.412V5.299h-1.412v5.697zm-.097-7.109c0 .44.365.741.8.741.44 0 .8-.3.8-.74 0-.441-.36-.747-.8-.747-.435 0-.8.306-.8.746zm2.698 7.109h1.418V3.28h-1.418v7.716zm2.354-4.006c0 1.053.827 1.434 1.853 1.649.73.145 1.412.225 1.412.778 0 .37-.312.687-.977.687-.607 0-.972-.29-1.031-.708h-1.37c0 1.014.854 1.702 2.32 1.702 1.509 0 2.427-.693 2.427-1.863 0-1.053-.768-1.412-1.815-1.6-.65-.118-1.471-.215-1.471-.779 0-.419.354-.676.907-.676.688 0 .918.397.956.757h1.251c0-1.058-.821-1.74-2.18-1.74-1.197 0-2.282.526-2.282 1.793z"/>
    <path fill="#BDBDBD" d="M389.775 3.672v7.324h.751V8.129h1.804c1.391 0 2.298-.87 2.298-2.223 0-1.353-.907-2.234-2.298-2.234h-2.555zm.751.688h1.778c.988 0 1.557.569 1.557 1.546 0 1.219-.747 1.54-2.035 1.54h-1.3V4.36zm8.132 5.884h.021v.752h.72v-3.92c0-1.143-.833-1.788-2.003-1.788-1.289 0-1.949.677-2.019 1.638h.704c.075-.601.499-.993 1.288-.993.81 0 1.289.424 1.289 1.235V7.8h-1.552c-1.278.005-1.949.628-1.949 1.595 0 1.025.746 1.69 1.831 1.69.891 0 1.417-.407 1.67-.842zm-1.498.204c-.66 0-1.235-.36-1.235-1.074 0-.564.36-.966 1.208-.966h1.525v.714c0 .784-.65 1.326-1.498 1.326zm7.712-5.063h-.789l-1.627 4.757h-.027l-1.637-4.757h-.822l2.094 5.697-.118.375c-.177.596-.505.838-1.117.838-.14 0-.311-.01-.408-.022v.623c.15.032.317.043.478.043.854 0 1.37-.349 1.777-1.433l.172-.462 2.024-5.659zm.75 5.61h.74V7.41c0-.886.553-1.439 1.332-1.439.821 0 1.31.51 1.31 1.423v3.603h.735V7.398c0-.8.473-1.428 1.348-1.428.837 0 1.294.553 1.294 1.348v3.678h.74V7.173c0-1.176-.719-1.885-1.879-1.885-.95 0-1.53.484-1.723.961h-.032c-.21-.563-.736-.96-1.638-.96-.789 0-1.272.44-1.45.826h-.037v-.73h-.74v5.61zm10.949.092c1.224 0 1.944-.698 2.137-1.568h-.752c-.166.532-.612.929-1.363.929-.994 0-1.579-.773-1.579-1.949v-.134h3.774v-.467c0-1.579-.837-2.61-2.26-2.61-1.439 0-2.26 1.037-2.26 2.55v.64c0 1.589.864 2.609 2.303 2.609zm-1.557-3.366v-.017c0-1.02.59-1.771 1.514-1.771.913 0 1.514.751 1.514 1.771v.017h-3.028zm4.926 3.275h.74V7.56c0-.822.463-1.59 1.515-1.59.891 0 1.455.559 1.455 1.52v3.506h.74V7.382c0-1.358-.853-2.094-2.007-2.094-.94 0-1.471.5-1.68.902h-.022v-.805h-.741v5.61zm6.096-5.61h-.789v.633h.79v3.479c0 1.068.252 1.551 1.503 1.551.193 0 .38-.021.467-.043V10.4c-.086.01-.177.016-.285.016-.714 0-.95-.177-.95-.865V6.02h1.187v-.634h-1.187V3.984h-.736v1.401zM482.738 3.672v7.324h2.212c2.164 0 3.227-1.289 3.227-3.662 0-2.378-1.074-3.662-3.227-3.662h-2.212zm.751.688h1.44c1.67 0 2.47 1.025 2.47 2.974 0 1.949-.8 2.974-2.47 2.974h-1.44V4.36zm7.912.928c-1.504 0-2.363 1.085-2.363 2.604v.586c0 1.524.86 2.609 2.363 2.609 1.503 0 2.357-1.085 2.357-2.61v-.585c0-1.514-.86-2.604-2.357-2.604zm0 .655c1.009 0 1.616.747 1.616 1.992v.505c0 1.24-.607 1.987-1.616 1.987-1.015 0-1.622-.747-1.622-1.987v-.505c0-1.245.612-1.992 1.622-1.992zm3.535 5.053h.74V7.56c0-.822.463-1.59 1.515-1.59.891 0 1.455.559 1.455 1.52v3.506h.74V7.382c0-1.358-.853-2.094-2.007-2.094-.94 0-1.471.5-1.68.902h-.022v-.805h-.741v5.61zm7.847.09c1.224 0 1.943-.697 2.136-1.567h-.751c-.167.532-.612.929-1.364.929-.993 0-1.578-.773-1.578-1.949v-.134H505v-.467c0-1.579-.838-2.61-2.26-2.61-1.44 0-2.26 1.037-2.26 2.55v.64c0 1.589.864 2.609 2.303 2.609zm-1.557-3.365v-.017c0-1.02.59-1.771 1.514-1.771.912 0 1.514.751 1.514 1.771v.017h-3.028z"/>
    <path stroke="#26BED6" stroke-width=".4998" d="M351.861 7.497h10.996"/>
    <path stroke="#BDBDBD" stroke-width=".4998" d="M434.828 7.497h22.99"/>
</svg>
