<svg xmlns="http://www.w3.org/2000/svg" width="506" height="15" fill="none" viewBox="0 0 506 15">
    <path fill="#26BED6" d="M11.994 4.755a.726.726 0 0 0-.217-.515l-1.052-1.03a.759.759 0 0 0-1.053 0L4.596 8.185 2.321 5.951a.759.759 0 0 0-1.052 0L.217 6.981A.726.726 0 0 0 0 7.496c0 .19.077.379.217.515l2.8 2.74 1.053 1.03a.759.759 0 0 0 1.052 0l1.053-1.03 5.602-5.481a.726.726 0 0 0 .217-.515zM104.944 4.755a.726.726 0 0 0-.216-.515l-1.053-1.03a.759.759 0 0 0-1.052 0l-5.076 4.975-2.275-2.234a.759.759 0 0 0-1.052 0l-1.053 1.03a.726.726 0 0 0-.216.515c0 .19.077.379.216.515l2.801 2.74 1.053 1.03a.759.759 0 0 0 1.052 0l1.052-1.03 5.603-5.481a.726.726 0 0 0 .216-.515zM197.895 4.755a.726.726 0 0 0-.217-.515l-1.052-1.03a.759.759 0 0 0-1.053 0l-5.076 4.975-2.275-2.234a.759.759 0 0 0-1.052 0l-1.052 1.03a.726.726 0 0 0-.217.515c0 .19.077.379.217.515l2.8 2.74 1.053 1.03a.759.759 0 0 0 1.052 0l1.053-1.03 5.602-5.481a.726.726 0 0 0 .217-.515zM290.846 4.755a.726.726 0 0 0-.217-.515l-1.052-1.03a.759.759 0 0 0-1.053 0l-5.076 4.975-2.275-2.234a.759.759 0 0 0-1.052 0l-1.052 1.03a.726.726 0 0 0-.217.515c0 .19.077.379.217.515l2.8 2.74 1.053 1.03a.759.759 0 0 0 1.052 0l1.053-1.03 5.602-5.481a.726.726 0 0 0 .217-.515zM383.796 4.755a.726.726 0 0 0-.217-.515l-1.052-1.03a.759.759 0 0 0-1.053 0l-5.076 4.975-2.275-2.234a.759.759 0 0 0-1.052 0l-1.052 1.03a.726.726 0 0 0-.217.515c0 .19.077.379.217.515l2.8 2.74 1.053 1.03a.759.759 0 0 0 1.052 0l1.053-1.03 5.602-5.481a.726.726 0 0 0 .217-.515z" opacity=".7"/>
    <circle cx="7.5" cy="7.5" r="7.5" fill="#26BED6" transform="matrix(.99947 0 0 .99947 462.754 0)"/>
    <path fill="#fff" d="M472.475 5.486c-.054-.902-.87-1.948-2.405-1.948-1.756 0-2.9 1.374-2.9 3.961 0 1.192.275 2.1.763 2.711.494.612 1.197.924 2.067.924 1.47 0 2.652-.929 2.652-2.556 0-1.546-1.128-2.388-2.325-2.388-.977 0-1.535.569-1.734 1.057h-.053c0-1.567.553-2.571 1.492-2.571.65 0 1.036.435 1.084.81h1.359zm-3.764 3.152c0-.849.57-1.359 1.283-1.359.671 0 1.278.478 1.278 1.359 0 .885-.59 1.352-1.272 1.352-.698 0-1.289-.494-1.289-1.352z"/>
    <path fill="#26BED6" d="M17.92 3.672v7.322h2.211c2.164 0 3.227-1.288 3.227-3.661 0-2.378-1.074-3.661-3.227-3.661H17.92zm.751.687h1.439c1.67 0 2.47 1.025 2.47 2.974 0 1.949-.8 2.974-2.47 2.974h-1.439V4.359zm7.851 6.726c1.224 0 1.944-.697 2.137-1.567h-.752c-.166.531-.612.929-1.363.929-.993 0-1.579-.773-1.579-1.95v-.133h3.774v-.467c0-1.579-.837-2.61-2.26-2.61-1.438 0-2.26 1.037-2.26 2.55v.64c0 1.588.865 2.608 2.303 2.608zM24.965 7.72v-.017c0-1.02.59-1.771 1.514-1.771.913 0 1.514.751 1.514 1.771v.017h-3.028zm7.341 3.365c1.278 0 2.228-.955 2.228-2.576v-.64c0-1.615-.94-2.581-2.195-2.581-.86 0-1.418.477-1.707.96h-.022v-.864h-.703v7.457h.74v-2.663h.022c.285.483.827.907 1.637.907zm-.032-.66c-1.02 0-1.642-.81-1.642-1.991v-.532c0-1.127.606-1.96 1.62-1.96.95 0 1.541.725 1.541 1.965v.521c0 1.31-.638 1.997-1.519 1.997zm6.6-.182h.022v.751h.72V7.075c0-1.143-.833-1.787-2.003-1.787-1.288 0-1.949.676-2.019 1.637h.704c.075-.601.499-.993 1.288-.993.81 0 1.288.424 1.288 1.235V7.8h-1.551c-1.278.005-1.949.628-1.949 1.594 0 1.026.747 1.691 1.83 1.691.892 0 1.418-.408 1.67-.842zm-1.497.204c-.66 0-1.235-.36-1.235-1.074 0-.564.36-.966 1.208-.966h1.524v.714c0 .783-.65 1.326-1.497 1.326zm3.599.547h.74V7.532c0-.87.366-1.546 1.375-1.546.172 0 .354.01.435.026V5.32a3.286 3.286 0 0 0-.349-.022c-.848 0-1.267.462-1.439.849h-.021v-.763h-.741v5.61zm4.013-5.61h-.79v.634h.79v3.478c0 1.069.252 1.552 1.503 1.552.193 0 .38-.022.467-.043v-.607c-.086.011-.177.016-.285.016-.714 0-.95-.177-.95-.864V6.018h1.187v-.634h-1.187v-1.4h-.735v1.4z" opacity=".7"/>
    <path stroke="#26BED6" stroke-width=".499735" d="M52.972 7.746h33.982"/>
    <path stroke="#26BED6" stroke-width=".499735" d="M144.923 7.496h34.981M240.872 7.496h31.983" opacity=".7"/>
    <path fill="#26BED6" d="M114.42 3.672h-2.55v7.322h.751V7.988h1.927l1.428 3.006h.865L115.3 7.832c.709-.23 1.412-.837 1.412-2.024 0-1.143-.736-2.136-2.292-2.136zm-1.799 3.634V4.354h1.702c.988 0 1.616.526 1.616 1.503 0 .918-.575 1.45-1.648 1.45h-1.67zm7.336 3.78c1.224 0 1.943-.698 2.136-1.568h-.751c-.167.531-.612.929-1.364.929-.993 0-1.578-.773-1.578-1.95v-.133h3.774v-.467c0-1.579-.838-2.61-2.26-2.61-1.439 0-2.26 1.037-2.26 2.55v.64c0 1.588.864 2.608 2.303 2.608zM118.4 7.72v-.017c0-1.02.59-1.771 1.514-1.771.913 0 1.514.751 1.514 1.771v.017H118.4zm5.247-2.336h-.789v.634h.79v3.478c0 1.069.252 1.552 1.503 1.552.193 0 .38-.022.467-.043v-.607c-.086.011-.178.016-.285.016-.714 0-.95-.177-.95-.864V6.018h1.186v-.634h-1.186v-1.4h-.736v1.4zm7.282 0h-.746v3.463c0 .934-.59 1.557-1.508 1.557-.81 0-1.428-.403-1.428-1.46v-3.56h-.741v3.769c0 1.277.837 1.932 1.98 1.932.93 0 1.472-.429 1.67-.89h.033v.8h.74v-5.61zm1.41 5.61h.74V7.532c0-.87.365-1.546 1.375-1.546.171 0 .354.01.434.026V5.32a3.286 3.286 0 0 0-.349-.022c-.848 0-1.266.462-1.438.849h-.022v-.763h-.74v5.61zm3.518 0h.741V7.558c0-.82.462-1.589 1.514-1.589.891 0 1.455.559 1.455 1.52v3.505h.74V7.381c0-1.358-.853-2.093-2.007-2.093-.94 0-1.471.499-1.68.902h-.022v-.806h-.74v5.61zM207.37 3.672h-2.55v7.322h.752V7.988h1.927l1.428 3.006h.865l-1.541-3.162c.709-.23 1.412-.837 1.412-2.024 0-1.143-.736-2.136-2.292-2.136zm-1.798 3.634V4.354h1.702c.988 0 1.616.526 1.616 1.503 0 .918-.575 1.45-1.648 1.45h-1.67zm7.336 3.78c1.224 0 1.943-.698 2.136-1.568h-.751c-.167.531-.612.929-1.364.929-.993 0-1.578-.773-1.578-1.95v-.133h3.774v-.467c0-1.579-.838-2.61-2.26-2.61-1.439 0-2.26 1.037-2.26 2.55v.64c0 1.588.864 2.608 2.303 2.608zM211.35 7.72v-.017c0-1.02.59-1.771 1.514-1.771.913 0 1.514.751 1.514 1.771v.017h-3.028zm6.133 3.274h.79l2.034-5.61h-.746l-1.675 4.676h-.027l-1.594-4.676h-.779l1.997 5.61zm3.487 0h.74v-5.61h-.74v5.61zM220.826 4c0 .29.23.521.515.521.285 0 .521-.23.521-.52a.52.52 0 0 0-.52-.516.515.515 0 0 0-.516.515zm4.42 7.086c1.225 0 1.944-.697 2.137-1.567h-.751c-.167.531-.612.929-1.364.929-.993 0-1.578-.773-1.578-1.95v-.133h3.774v-.467c0-1.579-.838-2.61-2.26-2.61-1.44 0-2.26 1.037-2.26 2.55v.64c0 1.588.864 2.608 2.303 2.608zM223.69 7.72v-.017c0-1.02.59-1.771 1.514-1.771.912 0 1.513.751 1.513 1.771v.017h-3.027zm11.576-2.336h-.757l-1.122 4.612h-.032l-1.374-4.612h-.714l-1.369 4.612h-.037l-1.123-4.612h-.756l1.487 5.61h.767l1.38-4.53h.021l1.375 4.53h.767l1.487-5.61zM296.82 10.994l.79-2.308h2.839l.794 2.308h.784l-2.625-7.322h-.74l-2.631 7.322h.789zm2.222-6.393l1.192 3.467h-2.41l1.197-3.467h.021zm5.726.687c-1.364 0-2.234 1.057-2.234 2.587v.623c0 1.535.8 2.582 2.234 2.582.859 0 1.428-.462 1.701-.988h.022v.902h.703V3.28h-.74v2.947h-.022c-.258-.483-.832-.94-1.664-.94zm.059.665c1.014 0 1.642.8 1.642 1.96v.558c0 1.192-.606 1.949-1.626 1.949-.902 0-1.568-.66-1.568-1.954v-.548c0-1.326.682-1.965 1.552-1.965zm5.79-.665c-1.364 0-2.234 1.057-2.234 2.587v.623c0 1.535.8 2.582 2.233 2.582.86 0 1.428-.462 1.702-.988h.021v.902h.704V3.28h-.741v2.947h-.022c-.257-.483-.832-.94-1.664-.94zm.058.665c1.015 0 1.643.8 1.643 1.96v.558c0 1.192-.607 1.949-1.627 1.949-.902 0-1.567-.66-1.567-1.954v-.548c0-1.326.682-1.965 1.551-1.965zm7.698-.665c-1.363 0-2.233 1.057-2.233 2.587v.623c0 1.535.8 2.582 2.233 2.582.86 0 1.428-.462 1.702-.988h.021v.902h.704V3.28h-.741v2.947h-.022c-.257-.483-.832-.94-1.664-.94zm.06.665c1.014 0 1.642.8 1.642 1.96v.558c0 1.192-.607 1.949-1.627 1.949-.902 0-1.567-.66-1.567-1.954v-.548c0-1.326.682-1.965 1.551-1.965zm5.859 5.132c1.224 0 1.943-.697 2.136-1.567h-.751c-.167.531-.612.929-1.364.929-.993 0-1.578-.773-1.578-1.95v-.133h3.774v-.467c0-1.579-.838-2.61-2.26-2.61-1.439 0-2.26 1.037-2.26 2.55v.64c0 1.588.864 2.608 2.303 2.608zm-1.557-3.365v-.017c0-1.02.59-1.771 1.514-1.771.912 0 1.514.751 1.514 1.771v.017h-3.028zm5.247-2.336h-.789v.634h.79v3.478c0 1.069.251 1.552 1.502 1.552.194 0 .381-.022.467-.043v-.607c-.086.011-.177.016-.284.016-.714 0-.95-.177-.95-.864V6.018h1.186v-.634h-1.186v-1.4h-.736v1.4zm6.106 4.859h.022v.751h.72V7.075c0-1.143-.833-1.787-2.003-1.787-1.288 0-1.949.676-2.018 1.637h.703c.075-.601.499-.993 1.288-.993.81 0 1.288.424 1.288 1.235V7.8h-1.55c-1.279.005-1.95.628-1.95 1.594 0 1.026.747 1.691 1.831 1.691.891 0 1.417-.408 1.67-.842zm-1.497.204c-.66 0-1.235-.36-1.235-1.074 0-.564.36-.966 1.208-.966h1.524v.714c0 .783-.65 1.326-1.497 1.326zm3.647.547h.741v-5.61h-.74v5.61zM336.093 4c0 .29.231.521.516.521.284 0 .52-.23.52-.52a.52.52 0 0 0-.52-.516.516.516 0 0 0-.516.515zm2.392 6.995h.74V3.28h-.74v7.714zm1.962-4.053c0 .993.832 1.3 1.89 1.535.859.183 1.465.323 1.465.994 0 .563-.478.982-1.374.982-.864 0-1.31-.43-1.374-.94h-.73c0 .93.794 1.573 2.05 1.573 1.25 0 2.164-.59 2.164-1.696 0-1.106-.918-1.358-1.955-1.562-.713-.15-1.406-.306-1.406-.961 0-.628.537-.94 1.25-.94.956 0 1.252.564 1.273.999h.703c0-.843-.617-1.637-1.948-1.637-1.069 0-2.008.526-2.008 1.653zM389.722 3.672v7.322h.751V8.128h1.804c1.39 0 2.298-.87 2.298-2.223 0-1.353-.908-2.233-2.298-2.233h-2.555zm.751.687h1.777c.988 0 1.557.569 1.557 1.546 0 1.219-.746 1.54-2.035 1.54h-1.299V4.36zm8.13 5.884h.022v.751h.72V7.075c0-1.143-.833-1.787-2.003-1.787-1.289 0-1.949.676-2.019 1.637h.704c.075-.601.499-.993 1.288-.993.81 0 1.288.424 1.288 1.235V7.8h-1.551c-1.278.005-1.949.628-1.949 1.594 0 1.026.746 1.691 1.83 1.691.892 0 1.418-.408 1.67-.842zm-1.497.204c-.66 0-1.235-.36-1.235-1.074 0-.564.36-.966 1.208-.966h1.524v.714c0 .783-.65 1.326-1.497 1.326zm7.711-5.063h-.79l-1.626 4.757h-.027l-1.637-4.757h-.821l2.093 5.696-.118.376c-.177.596-.504.837-1.116.837-.14 0-.312-.01-.408-.021v.623c.15.032.316.042.478.042.853 0 1.368-.348 1.776-1.433l.172-.462 2.024-5.658zm.749 5.61h.74V7.408c0-.886.554-1.439 1.332-1.439.821 0 1.31.51 1.31 1.423v3.602h.735V7.397c0-.8.473-1.428 1.348-1.428.837 0 1.293.553 1.293 1.348v3.677h.741V7.172c0-1.176-.72-1.884-1.879-1.884-.95 0-1.53.483-1.723.96h-.032c-.21-.563-.735-.96-1.637-.96-.79 0-1.273.44-1.45.826h-.037v-.73h-.741v5.61zm10.948.091c1.224 0 1.944-.697 2.137-1.567h-.752c-.166.531-.612.929-1.363.929-.993 0-1.579-.773-1.579-1.95v-.133h3.774v-.467c0-1.579-.837-2.61-2.26-2.61-1.438 0-2.26 1.037-2.26 2.55v.64c0 1.588.865 2.608 2.303 2.608zm-1.557-3.365v-.017c0-1.02.591-1.771 1.514-1.771.913 0 1.514.751 1.514 1.771v.017h-3.028zm4.926 3.274h.74V7.558c0-.82.462-1.589 1.514-1.589.892 0 1.455.559 1.455 1.52v3.505h.741V7.381c0-1.358-.854-2.093-2.008-2.093-.94 0-1.47.499-1.68.902h-.021v-.806h-.741v5.61zm6.095-5.61h-.789v.634h.79v3.478c0 1.069.252 1.552 1.502 1.552.194 0 .382-.022.467-.043v-.607c-.085.011-.177.016-.284.016-.714 0-.95-.177-.95-.864V6.018h1.186v-.634h-1.186v-1.4h-.736v1.4z" opacity=".7"/>
    <path fill="#26BED6" d="M482.522 3.667v7.327h2.674c2.211 0 3.28-1.353 3.28-3.682 0-2.32-1.052-3.645-3.28-3.645h-2.674zm1.45 1.186h1.03c1.45 0 1.976.972 1.976 2.485 0 1.852-.757 2.47-1.975 2.47h-1.031V4.853zm7.668.343c-1.68 0-2.609 1.155-2.609 2.728v.418c0 1.654.929 2.754 2.61 2.754 1.68 0 2.603-1.1 2.603-2.76v-.418c0-1.573-.929-2.722-2.604-2.722zm0 1.096c.816 0 1.176.697 1.176 1.626v.44c0 .902-.354 1.638-1.176 1.638-.826 0-1.18-.741-1.18-1.638v-.44c0-.923.364-1.626 1.18-1.626zm3.47 4.702h1.407V7.655c0-.72.398-1.245 1.128-1.245.606 0 1.11.349 1.11 1.224v3.36h1.413V7.328c0-1.396-.811-2.12-1.97-2.12-.95 0-1.471.53-1.654.923h-.059v-.833h-1.374v5.696zm8.437.102c1.525 0 2.265-.907 2.4-1.82h-1.31c-.118.462-.516.741-1.08.741-.719 0-1.207-.547-1.207-1.412V8.45H506V7.89c0-1.637-.96-2.695-2.512-2.695-1.498 0-2.523.988-2.523 2.658v.52c0 1.745 1.02 2.722 2.582 2.722zm-1.197-3.543v-.01c0-.73.456-1.294 1.149-1.294.687 0 1.132.558 1.132 1.293v.011h-2.281z"/>
    <path stroke="#26BED6" stroke-width=".499735" d="M348.815 7.496h13.993M434.769 7.496h22.988"/>
</svg>
