<svg xmlns="http://www.w3.org/2000/svg" width="24" height="32" fill="none" viewBox="0 0 24 32">
    <path fill="#E52822" d="M12.21.64C5.71.64.42 5.927.42 12.428c0 2.755.95 5.291 2.54 7.3l9.25 11.632 9.251-11.631A11.732 11.732 0 0 0 24 12.429c0-6.5-5.289-11.79-11.79-11.79z"/>
    <path fill="#fff" d="M10.395 20.248l-.388-14.736a.579.579 0 0 0-.822-.522v-.005l-.037.024a.595.595 0 0 0-.149.113c-.426.345-1.785 1.752-1.899 3.654-.172 2.9 1.256 4.075 1.742 5.15l-.388 6.322c0 .317.649.574.97.574.322 0 .971-.257.971-.574zM13.999 11.075l.945.496c.108.057.227.098.35.13l-.364 8.639c0 .266.61.482.913.482.302 0 .913-.216.913-.482l-.366-8.684c.129-.043.253-.094.361-.164l.7-.449c.506-.324.887-1.036.887-1.659v-3.87a.563.563 0 0 0-.548-.577.563.563 0 0 0-.548.576V9h-.304V5.513a.563.563 0 0 0-.548-.576.563.563 0 0 0-.547.576V9h-.306V5.513a.563.563 0 0 0-.548-.576.563.563 0 0 0-.547.576V9h-.304V5.638a.563.563 0 0 0-.547-.576.563.563 0 0 0-.548.576v3.81c0 .64.411 1.34.956 1.627z"/>
</svg>
