<svg xmlns="http://www.w3.org/2000/svg" width="17" height="17" fill="none" viewBox="0 0 17 17">
    <path fill="#828282" fill-rule="evenodd" d="M8.558 8.057c-1.203-1.137-2.126-2.319-2.652-3.3-.264-.492-.417-.916-.466-1.245-.049-.336.017-.509.098-.595.08-.085.25-.16.588-.13.332.03.763.16 1.27.396 1.01.47 2.24 1.326 3.443 2.462 1.203 1.137 2.126 2.319 2.652 3.3.264.492.417.916.466 1.245.05.336-.017.51-.098.595-.08.085-.25.16-.588.13-.332-.03-.763-.16-1.27-.395-1.009-.47-2.24-1.326-3.443-2.463zM4.776 3.96L.456 16.63l12.427-5.022a5.44 5.44 0 0 1-1.196-.415c-1.1-.512-2.396-1.42-3.64-2.596-1.244-1.177-2.224-2.42-2.796-3.49a5.482 5.482 0 0 1-.475-1.147z" clip-rule="evenodd"/>
    <path fill="#828282" d="M11.667 9.71s4.045-1.674 4.961.538l-4.961-.537z"/>
    <path stroke="#fff" stroke-linecap="round" stroke-linejoin="round" stroke-miterlimit="10" stroke-width=".735" d="M11.667 9.71s4.045-1.674 4.961.538"/>
    <path fill="#828282" d="M6.895 5.699S12.362 1.687 8.35.455L6.895 5.7z"/>
    <path stroke="#fff" stroke-linecap="round" stroke-linejoin="round" stroke-miterlimit="10" stroke-width=".735" d="M6.895 5.699S12.362 1.687 8.35.455"/>
    <path fill="#828282" stroke="#fff" stroke-linecap="round" stroke-linejoin="round" stroke-miterlimit="10" stroke-width=".735" d="M15.598 3.721l-1.305-.255-.951.931-.161-1.32-1.179-.616 1.207-.562.221-1.311.907.973 1.315-.193-.645 1.163.591 1.19zM14.843 7.753a1.027 1.027 0 1 0 0-2.054 1.027 1.027 0 0 0 0 2.054z"/>
</svg>
