<svg xmlns="http://www.w3.org/2000/svg" width="17" height="16" fill="none" viewBox="0 0 17 16">
    <path fill="#828282" fill-rule="evenodd" d="M8.155 3.097c-3.06 0-5.787 1.749-7.85 4.616-.2.21-.2.56 0 .769 2.063 2.867 4.79 4.615 7.85 4.615 3.06 0 5.788-1.748 7.85-4.615.2-.21.2-.56 0-.77-2.062-2.866-4.79-4.615-7.85-4.615zm2.96 5.222c.12-1.963-1.442-3.51-3.2-3.386h-.01c-1.445.06-2.653 1.35-2.775 2.945-.12 1.96 1.441 3.505 3.197 3.384a3.085 3.085 0 0 0 2.788-2.934v-.009zm.734.041c.143-2.368-1.75-4.315-3.98-4.161C5.99 4.28 4.54 5.925 4.396 7.825v.005c-.146 2.372 1.75 4.322 3.985 4.165h.005c1.843-.155 3.387-1.7 3.463-3.635zm-5.49-.368c-.066 1.189.865 2.098 1.93 2.028.865-.07 1.596-.84 1.663-1.818.066-1.189-.865-2.098-1.93-2.028-.864.07-1.596.84-1.663 1.818z" clip-rule="evenodd"/>
</svg>
