<svg xmlns="http://www.w3.org/2000/svg" width="32" height="43" fill="none" viewBox="0 0 32 43">
    <path fill="#fff" stroke="#003C71" stroke-width="1.302" d="M.651 17.118C.651 8.586 7.541 1.651 16 1.651c8.458 0 15.349 6.935 15.349 15.467 0 3.614-1.236 6.942-3.306 9.578L16 41.95 3.957 26.697v-.001A15.463 15.463 0 0 1 .65 17.118z"/>
    <path fill="#003C71" fill-rule="evenodd" d="M18.391 15.775c-1.447-1.368-2.559-2.79-3.191-3.97-.317-.593-.502-1.101-.56-1.497-.06-.403.02-.608.115-.708.095-.1.296-.191.7-.154.4.036.917.191 1.527.475 1.214.565 2.696 1.595 4.144 2.964 1.447 1.368 2.558 2.79 3.19 3.97.318.593.502 1.101.56 1.497.06.402-.02.608-.114.708-.095.1-.296.191-.701.154-.399-.036-.917-.191-1.526-.475-1.214-.566-2.696-1.596-4.144-2.964zm-4.565-4.91L8.63 26.103l14.949-6.04a6.587 6.587 0 0 1-1.429-.498c-1.325-.617-2.886-1.71-4.385-3.128-1.5-1.417-2.679-2.915-3.369-4.203a6.635 6.635 0 0 1-.569-1.37z" clip-rule="evenodd"/>
    <path fill="#003C71" d="M22.128 17.773s4.87-2.016 5.974.647l-5.974-.647z"/>
    <path stroke="#fff" stroke-linecap="round" stroke-linejoin="round" stroke-miterlimit="10" stroke-width=".913" d="M22.128 17.773s4.87-2.016 5.974.647"/>
    <path fill="#003C71" d="M16.383 12.943s6.582-4.83 1.75-6.314l-1.75 6.314z"/>
    <path stroke="#fff" stroke-linecap="round" stroke-linejoin="round" stroke-miterlimit="10" stroke-width=".913" d="M16.383 12.943s6.582-4.83 1.75-6.314"/>
    <path fill="#003C71" stroke="#fff" stroke-linecap="round" stroke-linejoin="round" stroke-miterlimit="10" stroke-width=".913" d="M26.862 10.562l-1.572-.308-1.145 1.122-.194-1.59-1.42-.742 1.454-.677.267-1.578 1.091 1.171 1.583-.232-.776 1.4.712 1.434zM25.952 15.416a1.237 1.237 0 1 0 0-2.473 1.237 1.237 0 0 0 0 2.473z"/>
</svg>
