<svg width="32" height="43" viewBox="0 0 32 43" fill="none" xmlns="http://www.w3.org/2000/svg">
<path d="M0.651163 17.118C0.651163 8.5856 7.54175 1.65116 16 1.65116C24.4582 1.65116 31.3488 8.5856 31.3488 17.118C31.3488 20.7326 30.1125 24.0598 28.0431 26.696C28.0429 26.6963 28.0427 26.6965 28.0426 26.6967L16 41.9492L3.95744 26.6967C3.9573 26.6966 3.95716 26.6964 3.95702 26.6962C1.88759 24.0599 0.651163 20.7326 0.651163 17.118Z" fill="white" stroke="#8D5608" stroke-width="1.30233"/>
<g clip-path="url(#clip0)">
<path d="M12.8701 14.0193C12.9304 14.0604 13.0011 14.0821 13.0746 14.0821H13.0755C13.2764 14.0821 13.4399 13.9187 13.4399 13.718C13.4399 13.683 13.435 13.6484 13.4252 13.6151C13.2063 12.6562 13.3103 11.8835 13.7346 11.3183C14.2291 10.6594 14.4481 9.81424 14.3205 9.05739C14.2079 8.38728 13.8477 7.83028 13.2791 7.44694C13.1572 7.36437 12.9896 7.36512 12.8683 7.44862C12.7443 7.53397 12.686 7.68409 12.7202 7.8319C12.9566 8.84059 12.7419 9.47907 12.2034 10.4478C11.8707 11.0463 11.7348 11.7184 11.8207 12.3404C11.9179 13.0431 12.2812 13.624 12.8701 14.0193Z" fill="#8D5608"/>
<path d="M15.9751 13.8575C16.032 13.8964 16.0985 13.9169 16.1673 13.9169H16.1677C16.3563 13.9169 16.5097 13.7634 16.5097 13.5748C16.5097 13.5427 16.5052 13.5108 16.4963 13.4799C16.33 12.749 16.4081 12.162 16.7284 11.7351C17.1239 11.2084 17.299 10.5319 17.1968 9.9256C17.1062 9.38664 16.8164 8.93848 16.3587 8.62962C16.2447 8.55259 16.0905 8.55161 15.9725 8.63199C15.8573 8.71191 15.8022 8.85706 15.8347 8.99104C16.0151 9.76056 15.8501 10.2498 15.4366 10.9932C15.1707 11.4716 15.0622 12.0092 15.1311 12.5069C15.2092 13.0724 15.5017 13.5398 15.9751 13.8575Z" fill="#8D5608"/>
<path d="M25.6891 16.1938C25.4622 15.9267 25.1376 15.7797 24.775 15.7797H23.0141C23.0412 15.4754 22.9925 15.0778 22.7696 14.8153C22.6138 14.632 22.3918 14.5352 22.1275 14.5352H6.98822C6.59615 14.5352 6.37051 14.7037 6.25028 14.8451C6.00342 15.1354 5.96953 15.5707 6.02007 15.8814C6.43678 18.4416 7.33698 20.7672 8.55483 22.4297C9.28768 23.43 10.1227 24.1967 11.0537 24.7271C10.9172 24.9219 10.8364 25.1585 10.8364 25.4139C10.8364 26.0759 11.3749 26.6144 12.0369 26.6144H16.9841C17.6461 26.6144 18.1846 26.0759 18.1846 25.4139C18.1846 25.1628 18.1069 24.9297 17.9746 24.7368C18.7232 24.3147 19.408 23.7413 20.0258 23.0177C22.9783 22.7437 25.5629 19.9134 25.9799 17.3691C26.0067 17.2053 26.065 16.6364 25.6891 16.1938ZM21.4967 20.7559C22.0368 19.6683 22.4091 18.5413 22.6658 17.5146H24.1696C23.8086 18.7394 22.7693 20.0415 21.4967 20.7559Z" fill="#8D5608"/>
</g>
<defs>
<clipPath id="clip0">
<rect width="20" height="20" fill="white" transform="translate(6 7)"/>
</clipPath>
</defs>
</svg>
