<svg xmlns="http://www.w3.org/2000/svg" width="32" height="43" fill="none" viewBox="0 0 32 43">
    <path fill="#fff" stroke="#003C71" stroke-width="1.302" d="M.651 17.118C.651 8.586 7.541 1.651 16 1.651c8.458 0 15.349 6.935 15.349 15.467 0 3.614-1.236 6.942-3.306 9.578L16 41.95 3.957 26.697v-.001A15.463 15.463 0 0 1 .65 17.118z"/>
    <path fill="#003C71" fill-rule="evenodd" d="M16 10.914c-3.725 0-7.045 2.128-9.555 5.618a.693.693 0 0 0 0 .936c2.51 3.49 5.83 5.618 9.555 5.618 3.725 0 7.045-2.128 9.555-5.618a.693.693 0 0 0 0-.936c-2.51-3.49-5.83-5.618-9.555-5.618zm3.593 6.356c.147-2.385-1.752-4.262-3.885-4.113h-.013c-1.753.074-3.22 1.64-3.37 3.576-.143 2.382 1.752 4.258 3.883 4.11 1.798-.153 3.313-1.67 3.385-3.563v-.01zm.912.05c.174-2.887-2.133-5.26-4.854-5.074-2.292.1-4.06 2.106-4.236 4.421v.007c-.178 2.893 2.135 5.27 4.86 5.08l.006-.001c2.248-.189 4.131-2.072 4.224-4.433zm-6.691-.448c-.081 1.447 1.053 2.553 2.348 2.468 1.053-.085 1.944-1.021 2.024-2.213.081-1.446-1.052-2.553-2.348-2.468-1.052.085-1.943 1.021-2.024 2.213z" clip-rule="evenodd"/>
</svg>
