<svg xmlns="http://www.w3.org/2000/svg" width="32" height="43" fill="none" viewBox="0 0 32 43">
    <path fill="#fff" stroke="#003C71" stroke-width="1.302" d="M.651 17.118C.651 8.586 7.541 1.651 16 1.651c8.458 0 15.349 6.935 15.349 15.467 0 3.614-1.236 6.942-3.306 9.578L16 41.95 3.957 26.697v-.001A15.463 15.463 0 0 1 .65 17.118z"/>
    <path fill="#003C71" stroke="#003C71" stroke-width="1.149" d="M11.466 27.514a.89.89 0 0 0 .157.1c.094.048.202.089.304.117.107.03.185.038.223.038a.937.937 0 0 0 .222-.038c.103-.028.21-.07.305-.117a.874.874 0 0 0 .16-.103L12.334 8.42v-.015a.179.179 0 0 0-.184-.174.174.174 0 0 0-.074.017h-.001l-.01.006a.202.202 0 0 0-.052.038l-.026.028-.03.024c-.23.187-.77.712-1.267 1.483-.495.769-.927 1.751-.994 2.862l1.77 14.825zm0 0l.499-8.115.008-.142-.058-.13c-.194-.428-.453-.827-.726-1.248-.77-1.184-1.65-2.54-1.493-5.19l1.77 14.825zm1.404-.035l-.002.002.002-.002zm-1.439.002a.02.02 0 0 0 0 0zM19.606 15.788l-1.232-.647c-.51-.269-.937-.978-.937-1.61V8.568c0-.124.089-.175.138-.175.05 0 .14.051.14.175v4.954h1.543V8.407c0-.125.09-.176.14-.176.049 0 .138.051.138.175V13.522h1.547V8.407c0-.125.089-.176.139-.176.05 0 .138.051.138.175V13.522H22.906V8.407c0-.125.089-.176.139-.176.05 0 .138.051.138.175v5.041a2.1 2.1 0 0 1-.262.956c-.17.32-.398.575-.627.722l-.912.584h-.001a1.5 1.5 0 0 1-.34.152l-.412.136.018.433.47 11.152a.997.997 0 0 1-.106.055c-.088.04-.19.075-.287.1a1.003 1.003 0 0 1-.216.032c-.038 0-.114-.008-.215-.033a1.64 1.64 0 0 1-.287-.099.974.974 0 0 1-.106-.055l.469-11.094.02-.469-.456-.113a1.455 1.455 0 0 1-.327-.118zm1.572 11.749l.002-.003-.002.003zm-1.342-.003z"/>
</svg>
