<svg xmlns="http://www.w3.org/2000/svg" width="72" height="72" fill="none" viewBox="0 0 72 72">
    <path fill="#fff" fill-rule="evenodd" d="M36.473 35.728c-1.75-1.654-3.093-3.372-3.857-4.798-.383-.716-.606-1.33-.676-1.809-.072-.486.024-.734.139-.855.114-.121.357-.231.847-.187.481.044 1.107.232 1.844.575 1.467.683 3.258 1.928 5.007 3.581 1.75 1.654 3.092 3.372 3.857 4.799.383.715.606 1.33.676 1.808.072.486-.025.735-.139.856-.114.12-.357.23-.847.186-.481-.044-1.107-.231-1.844-.574-1.467-.684-3.258-1.928-5.007-3.582zm-5.517-5.934l-6.28 18.415L42.74 40.91c-.534-.11-1.117-.317-1.726-.6-1.6-.746-3.488-2.068-5.3-3.78-1.81-1.713-3.236-3.523-4.07-5.08-.31-.579-.548-1.139-.688-1.656z" clip-rule="evenodd"/>
    <path stroke="#fff" stroke-linecap="round" stroke-linejoin="round" stroke-miterlimit="10" stroke-width="1.103" d="M40.99 38.143s5.884-2.437 7.218.781M34.046 32.305s7.955-5.837 2.115-7.63M46.709 29.428l-1.899-.372-1.384 1.356-.235-1.922-1.715-.896 1.757-.818.322-1.907 1.32 1.415 1.912-.28-.938 1.691.86 1.733zM45.61 35.294a1.494 1.494 0 1 0 0-2.989 1.494 1.494 0 0 0 0 2.989z"/>
</svg>
