<svg width="307" height="223" viewBox="0 0 307 223" fill="none" xmlns="http://www.w3.org/2000/svg">
<path d="M249.379 49.2922L307 47.5697C307 47.5697 303.689 31.2245 291.436 37.1982C286.653 24.0047 268.77 22.3189 264.208 33.9365C250.814 30.2716 244.523 44.1614 249.379 49.2922Z" fill="#F2F9F9"/>
<path d="M6.25273 71.406L112.59 68.4741C112.59 68.4741 112.958 38.4223 90.1448 43.9196C85.7294 32.5585 63.2846 2.87316 33.4808 43.1866C20.2347 31.8255 -13.9844 57.4795 6.25273 71.406Z" fill="#F6FCFC"/>
<path d="M110.774 94.0038L267.888 44.1617L135.058 123.689L112.246 98.0352L110.774 94.0038Z" fill="#CFFDFF"/>
<path d="M172.911 223L299.485 220.435C299.485 220.435 291.39 188.917 268.577 197.712C268.945 191.482 262.322 163.629 237.301 164.362C212.281 165.095 191.308 182.32 198.299 203.21C192.412 203.576 171.439 203.943 172.911 223Z" fill="#F5FBFB"/>
<path d="M131.379 116.726L267.888 44.1617L199.45 172.432L131.379 116.726Z" fill="#EEFEFF"/>
<path d="M111.877 97.3022L267.887 44.1617L76.9224 61.3866L111.877 97.3022Z" fill="#EEFEFF"/>
<path d="M112.246 98.0352L122.917 164.736L131.379 116.726L112.246 98.0352Z" fill="#CFFDFF"/>
<path d="M155.369 136.37L122.916 164.736L131.379 116.726L155.369 136.37Z" fill="#BBEFEF"/>
<path d="M223.182 48.7429L217.111 53.5439L215.087 56.8056C215.087 56.8056 216.559 58.2716 217.295 57.9051C218.031 57.5386 228.334 44.7116 223.182 48.7429Z" fill="#FFE6CC"/>
<path d="M144.994 9.34482C144.258 14.1091 142.05 17.774 140.21 17.774C136.972 17.774 130.644 12.6432 130.644 8.61185C130.644 4.58051 136.972 2.38159 140.21 2.38159C143.448 2.38159 145.619 5.35013 144.994 9.34482Z" fill="#FFE6CC"/>
<path d="M138.002 15.9424L135.794 19.9737H130.643L134.323 13.0105L138.002 15.9424Z" fill="#FFE6CC"/>
<path d="M116.293 71.6478C116.293 71.6478 105.623 77.8781 105.991 78.2446C106.359 78.6111 117.029 77.5116 117.765 76.4121C118.501 75.3127 119.237 72.3808 119.237 72.3808L116.293 71.6478Z" fill="#FFE6CC"/>
<path d="M155.038 48.4128C155.038 48.4128 188.227 58.2713 217.295 52.774C216.191 56.8054 216.191 57.9048 216.191 57.9048C216.191 57.9048 201.473 61.5697 195.218 62.6691C189.405 63.6953 185.504 62.1561 182.34 62.6691C175.496 63.8052 161.735 68.5329 155.48 69.6324C149.225 70.7318 139.069 70.5119 139.069 70.5119L149.593 50.5751L155.038 48.4128Z" fill="#90B7D1"/>
<path d="M125.125 28.0363C125.125 28.0363 129.172 18.5077 133.588 18.5077C138.003 18.5077 144.626 20.7066 140.579 29.5023C142.418 35.7325 153.825 47.8266 155.296 47.8266C156.768 47.8266 152.721 48.926 151.617 52.9574C150.513 56.9887 142.786 69.8157 138.003 70.9152C133.22 68.3498 131.748 67.2503 125.861 61.3865C122.549 67.9833 119.973 73.4806 119.973 73.4806L115.558 72.0146L122.549 51.8579C122.549 51.8579 119.606 41.2298 125.125 28.0363Z" fill="#B2E4EA"/>
<path d="M138.186 33.35C138.186 33.35 128.988 55.7056 127.148 57.9045C131.195 52.4072 139.658 34.0829 138.186 36.6483C136.715 39.2137 134.875 42.5121 134.875 42.5121L138.186 33.35Z" fill="#9ED7DB"/>
<path d="M127.884 35.9158C127.884 35.9158 125.308 45.0779 124.572 46.5439C124.94 44.3449 126.044 38.8477 125.676 38.1147C126.412 38.4812 126.044 41.0466 126.044 41.0466L127.884 35.9158Z" fill="#9ED7DB"/>
<path d="M145.913 3.29837L146.097 9.08885C146.097 9.08885 140.394 9.52863 139.658 11.3611C138.922 13.1935 137.082 17.5913 132.299 20.1567C129.76 21.5127 129.723 29.6853 129.723 29.6853L121.26 27.1199C121.26 27.1199 124.204 26.7535 124.572 22.7221C124.94 18.6908 124.572 15.7589 126.044 14.6594C127.515 13.56 129.355 10.9946 129.723 8.42917C130.091 5.86377 129.355 2.19891 131.931 1.83243C134.506 1.46594 131.563 0 137.818 0C144.073 0 145.913 1.83243 145.913 3.29837Z" fill="#5A8BAF"/>
</svg>
