<svg xmlns="http://www.w3.org/2000/svg" width="12" height="16" fill="none" viewBox="0 0 12 16">
    <path fill="#828282" d="M3.333 15.421L2.943.58a.583.583 0 0 0-.829-.526V.048l-.037.024a.6.6 0 0 0-.15.114C1.497.534.129 1.951.014 3.866-.159 6.788 1.28 7.971 1.77 9.055l-.391 6.366c0 .32.654.579.977.579.325 0 .978-.259.978-.579zM6.963 6.182l.952.5c.109.057.228.099.353.13L7.9 15.514c0 .269.616.486.92.486.305 0 .92-.217.92-.486l-.368-8.747c.13-.042.254-.095.363-.165l.706-.452c.509-.326.892-1.044.892-1.671V.58c0-.32-.247-.58-.551-.58a.567.567 0 0 0-.552.58v3.512h-.307V.58c0-.32-.247-.58-.551-.58a.567.567 0 0 0-.552.58v3.512h-.308V.58c0-.32-.247-.58-.551-.58a.567.567 0 0 0-.552.58v3.512h-.306V.705c0-.32-.247-.58-.551-.58A.567.567 0 0 0 6 .705v3.839c0 .645.414 1.35.963 1.638z"/>
</svg>
