<svg xmlns="http://www.w3.org/2000/svg" width="32" height="43" fill="none" viewBox="0 0 32 43">
    <path fill="#fff" stroke="#003C71" stroke-width="1.302" d="M.651 17.118C.651 8.586 7.541 1.651 16 1.651c8.458 0 15.349 6.935 15.349 15.467 0 3.614-1.236 6.942-3.306 9.578L16 41.95 3.957 26.697v-.001A15.463 15.463 0 0 1 .65 17.118z"/>
    <path fill="#003C71" fill-rule="evenodd" d="M20.869 12.914h3.65c.673 0 1.218.545 1.218 1.217v9.737c0 .672-.545 1.217-1.217 1.217H7.48a1.217 1.217 0 0 1-1.217-1.217v-9.737c0-.672.545-1.217 1.217-1.217h3.652c0-.672.545-1.217 1.217-1.217h7.302c.672 0 1.217.545 1.218 1.217zM16 15.804a3.195 3.195 0 1 0 0 6.39 3.195 3.195 0 0 0 0-6.39zM11.892 19a4.108 4.108 0 1 1 8.216 0 4.108 4.108 0 0 1-8.216 0zm10.802-2.434a.609.609 0 1 0 0-1.218.609.609 0 0 0 0 1.218z" clip-rule="evenodd"/>
</svg>
