<svg xmlns="http://www.w3.org/2000/svg" width="72" height="72" fill="none" viewBox="0 0 72 72">
    <path fill="#fff" d="M32.792 46.168l-.563-21.336a.838.838 0 0 0-1.19-.755v-.008l-.053.035a.862.862 0 0 0-.216.164c-.617.5-2.584 2.536-2.75 5.29-.249 4.2 1.818 5.9 2.523 7.458l-.562 9.152c0 .46.94.832 1.405.832.466 0 1.406-.372 1.406-.832zM38.01 32.887l1.368.718c.156.083.328.143.508.187l-.53 12.509c0 .386.885.699 1.323.699.438 0 1.322-.313 1.322-.7l-.53-12.572a2.3 2.3 0 0 0 .524-.238l1.014-.649c.731-.47 1.283-1.501 1.283-2.402v-5.605c0-.46-.356-.834-.794-.834-.437 0-.793.373-.793.834v5.049h-.44v-5.05c0-.46-.355-.833-.793-.833-.438 0-.793.373-.793.834v5.049h-.442v-5.05c0-.46-.356-.833-.794-.833-.437 0-.793.373-.793.834v5.049h-.439v-4.869c0-.46-.355-.834-.793-.834-.438 0-.793.374-.793.834v5.518c0 .927.595 1.94 1.384 2.355z"/>
</svg>
