<svg xmlns="http://www.w3.org/2000/svg" width="72" height="72" fill="none" viewBox="0 0 72 72">
    <path fill="#fff" fill-rule="evenodd" d="M31.587 27.175a1.47 1.47 0 0 0-1.47 1.47h-4.413a1.47 1.47 0 0 0-1.47 1.471v11.767c0 .813.658 1.471 1.47 1.471h20.592a1.47 1.47 0 0 0 1.47-1.47V30.115a1.47 1.47 0 0 0-1.47-1.47h-4.413a1.47 1.47 0 0 0-1.47-1.471h-8.825zM36 32.139a3.861 3.861 0 1 0 0 7.722 3.861 3.861 0 0 0 0-7.722zm-4.964 3.86a4.964 4.964 0 1 1 9.928 0 4.964 4.964 0 0 1-9.928 0zm13.054-2.941a.736.736 0 1 0 0-1.471.736.736 0 0 0 0 1.471z" clip-rule="evenodd"/>
</svg>
