<svg xmlns="http://www.w3.org/2000/svg" width="72" height="72" fill="none" viewBox="0 0 72 72">
    <path fill="#fff" fill-rule="evenodd" d="M36 28.646c-4.501 0-8.513 2.571-11.547 6.788a.837.837 0 0 0 0 1.132C27.487 40.783 31.5 43.354 36 43.354s8.513-2.571 11.547-6.788a.837.837 0 0 0 0-1.132C44.513 31.217 40.5 28.646 36 28.646zm4.342 7.68c.177-2.882-2.117-5.15-4.695-4.97h-.015c-2.119.09-3.892 1.981-4.072 4.322-.174 2.878 2.116 5.144 4.691 4.966 2.172-.184 4.004-2.019 4.09-4.305l.001-.013zm1.102.061c.21-3.49-2.578-6.358-5.866-6.132-2.77.12-4.905 2.545-5.118 5.343v.008c-.215 3.496 2.579 6.37 5.872 6.138h.008c2.717-.229 4.992-2.505 5.104-5.357zm-8.086-.542c-.098 1.749 1.272 3.086 2.838 2.983 1.272-.103 2.348-1.234 2.446-2.674.098-1.749-1.272-3.086-2.838-2.983-1.272.103-2.348 1.234-2.446 2.674z" clip-rule="evenodd"/>
</svg>
