<svg xmlns="http://www.w3.org/2000/svg" xmlns:xlink="http://www.w3.org/1999/xlink" version="1.1" enable-background="new 0 0 365 560" xml:space="preserve" width="16.239681243896484" height="16.1983642578125"><rect id="backgroundrect" width="100%" height="100%" x="0" y="0" fill="none" stroke="none" class="" style=""/>

<g class="currentLayer" style=""><title>Layer 1</title><g id="svg_1" class="">
	<path fill="#00AEEF" d="M8.519832696111916,15.627450312102944 c0,0.002976451405410175 0.007759360003585883,0.008929354216230515 0.007759360003585883,0.008929354216230515 S15.324791419256716,7.6297253857658305 15.324791419256716,4.9985423433832485 c0,-3.872363278438625 -3.4451558415921215,-5.557034773900777 -6.8049587231448,-5.5629876767115976 C5.160029814559235,-0.5584924305175325 1.7148739729671176,1.1261790649446226 1.7148739729671176,4.9985423433832485 c0,2.631183042382585 6.801079043143006,10.637837322935926 6.801079043143006,10.637837322935926 S8.519832696111916,15.627450312102944 8.519832696111916,15.627450312102944 zM6.164866935023613,4.778284939382891 c0,-1.0000876722178158 1.055272960487677,-1.8096824544893806 2.3588454410901014,-1.8096824544893806 c1.3035724806024251,0 2.3588454410901014,0.8095947822715652 2.3588454410901014,1.8096824544893806 S9.823405176714337,6.58796739387228 8.519832696111916,6.58796739387228 C7.220139895511288,6.58796739387228 6.164866935023613,5.778372611600711 6.164866935023613,4.778284939382891 z" id="svg_2"/>
</g></g></svg>