<svg width="48" height="48" viewBox="0 0 48 48" fill="none" xmlns="http://www.w3.org/2000/svg">
<path d="M24.0515 26.9297C25.6385 26.9297 26.925 25.6453 26.925 24.0609C26.925 22.4766 25.6385 21.1922 24.0515 21.1922C22.4646 21.1922 21.1781 22.4766 21.1781 24.0609C21.1781 25.6453 22.4646 26.9297 24.0515 26.9297Z" fill="#26BED6"/>
<path d="M24.0515 28.4389C26.4721 28.4389 28.4343 26.4787 28.4343 24.0607C28.4343 21.6428 26.4721 19.6826 24.0515 19.6826C21.631 19.6826 19.6687 21.6428 19.6687 24.0607C19.6687 26.4787 21.631 28.4389 24.0515 28.4389Z" stroke="#26BED6" stroke-width="0.5" stroke-miterlimit="10" stroke-linecap="round" stroke-linejoin="round"/>
<path d="M24.0515 18V19.5609" stroke="#26BED6" stroke-width="0.5" stroke-miterlimit="10" stroke-linecap="round" stroke-linejoin="round"/>
<path d="M24.0609 28.4391V30" stroke="#26BED6" stroke-width="0.5" stroke-miterlimit="10" stroke-linecap="round" stroke-linejoin="round"/>
<path d="M19.5633 24.0703H18" stroke="#26BED6" stroke-width="0.5" stroke-miterlimit="10" stroke-linecap="round" stroke-linejoin="round"/>
<path d="M30 24.0516H28.4368" stroke="#26BED6" stroke-width="0.5" stroke-miterlimit="10" stroke-linecap="round" stroke-linejoin="round"/>
</svg>
