<svg width="24" height="33" viewBox="0 0 24 33" fill="none" xmlns="http://www.w3.org/2000/svg">
<path d="M12 0.639404C5.38322 0.639404 0 6.14835 0 12.9198C0 15.789 0.966583 18.4313 2.58394 20.5242L12 32.6394L21.4161 20.5242C23.0334 18.4313 24 15.789 24 12.9198C24 6.14835 18.6168 0.639404 12 0.639404Z" fill="#8D5608"/>
<g clip-path="url(#clip0)">
<path d="M9.80907 9.91347C9.85125 9.94221 9.90076 9.95739 9.95221 9.95739H9.95285C10.0935 9.95739 10.2079 9.84304 10.2079 9.70249C10.2079 9.678 10.2045 9.65384 10.1977 9.63048C10.0444 8.95925 10.1172 8.41837 10.4142 8.02272C10.7603 7.56154 10.9137 6.96989 10.8244 6.4401C10.7456 5.97102 10.4934 5.58112 10.0953 5.31279C10.0101 5.25498 9.8927 5.25551 9.80778 5.31396C9.72099 5.37371 9.68022 5.47879 9.70411 5.58226C9.86963 6.28834 9.71933 6.73527 9.34238 7.41338C9.10946 7.8323 9.01434 8.3028 9.07449 8.73819C9.1425 9.2301 9.39687 9.63675 9.80907 9.91347Z" fill="white"/>
<path d="M11.9826 9.80009C12.0224 9.82733 12.0689 9.8417 12.1171 9.8417H12.1174C12.2494 9.8417 12.3568 9.73427 12.3568 9.60222C12.3568 9.57972 12.3536 9.55741 12.3474 9.53576C12.231 9.02418 12.2857 8.61327 12.5099 8.31445C12.7867 7.94577 12.9093 7.4722 12.8378 7.04777C12.7744 6.6705 12.5715 6.35679 12.2511 6.14059C12.1713 6.08667 12.0633 6.08598 11.9807 6.14225C11.9001 6.19819 11.8615 6.29979 11.8843 6.39358C12.0106 6.93224 11.8951 7.2747 11.6056 7.7951C11.4195 8.12995 11.3435 8.50628 11.3918 8.85469C11.4464 9.25054 11.6512 9.57773 11.9826 9.80009Z" fill="white"/>
<path d="M18.7823 11.4354C18.6235 11.2485 18.3963 11.1456 18.1425 11.1456H16.9099C16.9288 10.9326 16.8948 10.6542 16.7387 10.4705C16.6297 10.3422 16.4743 10.2744 16.2892 10.2744H5.69176C5.41731 10.2744 5.25936 10.3924 5.1752 10.4914C5.00239 10.6946 4.97867 10.9993 5.01405 11.2168C5.30575 13.009 5.93589 14.6368 6.78838 15.8006C7.30138 16.5008 7.8859 17.0375 8.53762 17.4087C8.44205 17.5451 8.38546 17.7108 8.38546 17.8896C8.38546 18.3529 8.76244 18.7299 9.22585 18.7299H12.6889C13.1523 18.7299 13.5293 18.3529 13.5293 17.8896C13.5293 17.7138 13.4749 17.5506 13.3822 17.4156C13.9062 17.1201 14.3856 16.7187 14.818 16.2122C16.8848 16.0204 18.6941 14.0392 18.9859 12.2582C19.0047 12.1435 19.0455 11.7453 18.7823 11.4354ZM15.8477 14.6289C16.2258 13.8676 16.4864 13.0787 16.666 12.36H17.7188C17.466 13.2174 16.7385 14.1289 15.8477 14.6289Z" fill="white"/>
</g>
<defs>
<clipPath id="clip0">
<rect width="14" height="14" fill="white" transform="translate(5 5)"/>
</clipPath>
</defs>
</svg>
