<svg xmlns="http://www.w3.org/2000/svg" width="505" height="15" fill="none" viewBox="0 0 505 15">
    <path fill="#26BED6" d="M11.995 4.756a.726.726 0 0 0-.216-.515l-1.053-1.03a.759.759 0 0 0-1.052 0L4.597 8.186 2.322 5.952a.759.759 0 0 0-1.053 0L.217 6.982A.726.726 0 0 0 0 7.497c0 .19.077.379.217.515l2.801 2.741 1.053 1.03a.759.759 0 0 0 1.052 0l1.053-1.03 5.603-5.482a.726.726 0 0 0 .216-.515zM104.958 4.756a.726.726 0 0 0-.216-.515l-1.053-1.03a.759.759 0 0 0-1.052 0L97.56 8.186l-2.275-2.234a.759.759 0 0 0-1.053 0l-1.052 1.03a.726.726 0 0 0-.217.515c0 .19.077.379.217.515l2.801 2.741 1.053 1.03a.759.759 0 0 0 1.052 0l1.053-1.03 5.603-5.482a.726.726 0 0 0 .216-.515zM197.921 4.756a.726.726 0 0 0-.216-.515l-1.053-1.03a.759.759 0 0 0-1.052 0l-5.077 4.975-2.275-2.234a.759.759 0 0 0-1.053 0l-1.052 1.03a.726.726 0 0 0-.217.515c0 .19.077.379.217.515l2.801 2.741 1.053 1.03a.759.759 0 0 0 1.052 0l1.053-1.03 5.603-5.482a.726.726 0 0 0 .216-.515zM290.884 4.756a.726.726 0 0 0-.216-.515l-1.053-1.03a.759.759 0 0 0-1.052 0l-5.077 4.975-2.275-2.234a.759.759 0 0 0-1.053 0l-1.052 1.03a.726.726 0 0 0-.217.515c0 .19.077.379.217.515l2.801 2.741 1.053 1.03a.759.759 0 0 0 1.052 0l1.053-1.03 5.603-5.482a.726.726 0 0 0 .216-.515z" opacity=".7"/>
    <circle cx="7.5" cy="7.5" r="7.5" fill="#26BED6" transform="matrix(.9996 0 0 .9996 369.853 0)"/>
    <path fill="#fff" d="M374.459 9.025c.043 1.144.966 2.11 2.63 2.11 1.627 0 2.82-1.02 2.82-2.614 0-1.493-1.128-2.427-2.411-2.427-.854 0-1.407.386-1.574.628h-.048l.183-1.89h3.312v-1.17H374.9l-.349 4.31h1.272c.167-.359.58-.778 1.31-.778.763 0 1.359.548 1.359 1.391 0 .891-.693 1.407-1.364 1.407-.72 0-1.24-.37-1.331-.967h-1.337z"/>
    <circle cx="7.5" cy="7.5" r="7.5" fill="#BDBDBD" transform="matrix(.9996 0 0 .9996 462.817 0)"/>
    <path fill="#fff" d="M472.538 5.487c-.053-.902-.87-1.949-2.405-1.949-1.756 0-2.9 1.375-2.9 3.962 0 1.192.275 2.1.763 2.712.494.612 1.197.923 2.067.923 1.471 0 2.652-.929 2.652-2.555 0-1.547-1.127-2.39-2.324-2.39-.977 0-1.536.57-1.734 1.058h-.054c0-1.568.553-2.572 1.492-2.572.65 0 1.037.435 1.085.811h1.358zm-3.763 3.152c0-.849.569-1.359 1.283-1.359.671 0 1.278.478 1.278 1.359 0 .886-.59 1.353-1.273 1.353-.698 0-1.288-.494-1.288-1.353z"/>
    <path fill="#26BED6" d="M17.922 3.672v7.324h2.212c2.164 0 3.227-1.289 3.227-3.662 0-2.378-1.074-3.662-3.227-3.662h-2.212zm.752.688h1.439c1.67 0 2.47 1.025 2.47 2.974 0 1.949-.8 2.974-2.47 2.974h-1.44V4.36zm7.852 6.727c1.224 0 1.943-.698 2.137-1.568h-.752c-.166.532-.612.929-1.364.929-.993 0-1.578-.773-1.578-1.949v-.134h3.774v-.467c0-1.579-.837-2.61-2.26-2.61-1.439 0-2.26 1.037-2.26 2.55v.64c0 1.589.864 2.609 2.303 2.609zM24.969 7.72v-.017c0-1.02.59-1.771 1.514-1.771.913 0 1.514.751 1.514 1.771v.017h-3.028zm7.342 3.366c1.278 0 2.228-.956 2.228-2.577v-.64c0-1.615-.94-2.582-2.196-2.582-.859 0-1.417.478-1.707.961h-.022v-.864h-.703v7.458h.74V10.18h.022c.285.483.827.907 1.638.907zm-.032-.66c-1.02 0-1.643-.811-1.643-1.992v-.532c0-1.127.606-1.96 1.621-1.96.95 0 1.541.725 1.541 1.965v.521c0 1.31-.639 1.998-1.52 1.998zm6.6-.183h.022v.752h.72v-3.92c0-1.143-.833-1.788-2.003-1.788-1.289 0-1.949.677-2.019 1.638h.704c.075-.601.499-.993 1.288-.993.81 0 1.289.424 1.289 1.235V7.8h-1.552c-1.278.005-1.949.628-1.949 1.595 0 1.025.746 1.69 1.83 1.69.892 0 1.418-.407 1.67-.842zm-1.497.204c-.66 0-1.235-.36-1.235-1.074 0-.564.36-.966 1.208-.966h1.525v.714c0 .784-.65 1.326-1.498 1.326zm3.6.548h.74V7.533c0-.87.366-1.547 1.375-1.547.172 0 .354.011.435.027v-.692a3.287 3.287 0 0 0-.35-.022c-.847 0-1.266.462-1.438.848h-.021v-.762h-.742v5.61zm4.013-5.61h-.79v.633h.79v3.479c0 1.068.252 1.551 1.503 1.551.193 0 .381-.021.467-.043V10.4c-.086.01-.177.016-.284.016-.714 0-.95-.177-.95-.865V6.02h1.186v-.634H45.73V3.984h-.735v1.401z" opacity=".7"/>
    <path stroke="#26BED6" stroke-width=".4998" d="M52.979 7.747h33.987"/>
    <path stroke="#26BED6" stroke-width=".4998" d="M144.943 7.497h34.986M245.903 7.497h26.99" opacity=".7"/>
    <path fill="#26BED6" d="M114.435 3.672h-2.55v7.324h.751V7.989h1.928l1.428 3.007h.864l-1.54-3.163c.708-.23 1.412-.837 1.412-2.024 0-1.143-.736-2.137-2.293-2.137zm-1.799 3.635V4.354h1.702c.988 0 1.617.526 1.617 1.504 0 .918-.575 1.45-1.649 1.45h-1.67zm7.337 3.78c1.224 0 1.944-.698 2.137-1.568h-.752c-.166.532-.612.929-1.363.929-.994 0-1.579-.773-1.579-1.949v-.134h3.774v-.467c0-1.579-.837-2.61-2.26-2.61-1.439 0-2.26 1.037-2.26 2.55v.64c0 1.589.864 2.609 2.303 2.609zm-1.557-3.366v-.017c0-1.02.59-1.771 1.514-1.771.913 0 1.514.751 1.514 1.771v.017h-3.028zm5.248-2.336h-.789v.634h.79v3.479c0 1.068.252 1.551 1.502 1.551.194 0 .382-.021.468-.043V10.4c-.086.01-.178.016-.285.016-.714 0-.95-.177-.95-.865V6.02h1.186v-.634H124.4V3.984h-.736v1.401zm7.283 0h-.746v3.463c0 .934-.59 1.557-1.509 1.557-.81 0-1.428-.403-1.428-1.46v-3.56h-.74v3.77c0 1.277.837 1.932 1.98 1.932.93 0 1.471-.43 1.67-.891h.032v.8h.741v-5.61zm1.41 5.61h.74V7.534c0-.87.365-1.547 1.375-1.547.172 0 .354.011.435.027v-.692a3.287 3.287 0 0 0-.35-.022c-.848 0-1.266.462-1.438.848h-.022v-.762h-.74v5.61zm3.519 0h.74V7.56c0-.822.462-1.59 1.515-1.59.89 0 1.455.559 1.455 1.52v3.506h.74V7.382c0-1.358-.853-2.094-2.007-2.094-.94 0-1.472.5-1.681.902h-.021v-.805h-.741v5.61zM207.398 3.672h-2.55v7.324h.751V7.989h1.928l1.428 3.007h.864l-1.54-3.163c.708-.23 1.412-.837 1.412-2.024 0-1.143-.736-2.137-2.293-2.137zM205.6 7.307V4.354h1.702c.988 0 1.617.526 1.617 1.504 0 .918-.575 1.45-1.649 1.45h-1.67zm7.337 3.78c1.224 0 1.944-.698 2.137-1.568h-.752c-.166.532-.612.929-1.363.929-.994 0-1.579-.773-1.579-1.949v-.134h3.774v-.467c0-1.579-.837-2.61-2.26-2.61-1.439 0-2.26 1.037-2.26 2.55v.64c0 1.589.864 2.609 2.303 2.609zM211.38 7.72v-.017c0-1.02.59-1.771 1.514-1.771.913 0 1.514.751 1.514 1.771v.017h-3.028zm6.134 3.275h.79l2.034-5.61h-.746l-1.675 4.675h-.027l-1.595-4.676h-.778l1.997 5.61zm3.487 0h.741v-5.61h-.74v5.61zM220.855 4c0 .29.231.52.516.52.284 0 .52-.23.52-.52a.52.52 0 0 0-.52-.516.516.516 0 0 0-.516.516zm4.421 7.087c1.225 0 1.944-.698 2.137-1.568h-.751c-.167.532-.612.929-1.364.929-.993 0-1.579-.773-1.579-1.949v-.134h3.775v-.467c0-1.579-.838-2.61-2.26-2.61-1.44 0-2.26 1.037-2.26 2.55v.64c0 1.589.864 2.609 2.302 2.609zM223.72 7.72v-.017c0-1.02.591-1.771 1.514-1.771.913 0 1.515.751 1.515 1.771v.017h-3.029zm11.579-2.336h-.758l-1.122 4.612h-.032l-1.374-4.612h-.714l-1.37 4.612h-.037l-1.122-4.612h-.757l1.487 5.61h.768l1.38-4.53h.021l1.375 4.53h.767l1.488-5.61zm.55 1.557c0 .993.832 1.3 1.89 1.536.859.182 1.465.322 1.465.993 0 .564-.477.982-1.374.982-.864 0-1.31-.43-1.374-.94h-.73c0 .93.794 1.574 2.05 1.574 1.251 0 2.164-.59 2.164-1.697 0-1.106-.918-1.358-1.954-1.562-.714-.15-1.407-.306-1.407-.961 0-.628.537-.94 1.251-.94.956 0 1.25.564 1.272.999h.704c0-.843-.618-1.638-1.95-1.638-1.068 0-2.007.527-2.007 1.654zM296.86 10.996l.79-2.309h2.84l.794 2.309h.784l-2.625-7.324h-.741l-2.631 7.324h.79zm2.223-6.395l1.192 3.469h-2.41L299.06 4.6h.022zm5.726.687c-1.364 0-2.234 1.058-2.234 2.588V8.5c0 1.536.8 2.583 2.234 2.583.859 0 1.428-.462 1.702-.988h.021v.902h.704V3.28h-.741v2.948h-.022c-.257-.483-.832-.94-1.664-.94zm.059.666c1.015 0 1.643.8 1.643 1.96v.558c0 1.192-.607 1.95-1.627 1.95-.902 0-1.568-.661-1.568-1.955v-.548c0-1.326.682-1.965 1.552-1.965zm5.79-.666c-1.364 0-2.233 1.058-2.233 2.588V8.5c0 1.536.8 2.583 2.233 2.583.86 0 1.428-.462 1.702-.988h.022v.902h.703V3.28h-.74v2.948h-.022c-.258-.483-.833-.94-1.665-.94zm.06.666c1.014 0 1.642.8 1.642 1.96v.558c0 1.192-.606 1.95-1.627 1.95-.902 0-1.567-.661-1.567-1.955v-.548c0-1.326.682-1.965 1.551-1.965zm7.698-.666c-1.363 0-2.233 1.058-2.233 2.588V8.5c0 1.536.8 2.583 2.233 2.583.86 0 1.428-.462 1.702-.988h.022v.902h.703V3.28h-.74v2.948h-.022c-.258-.483-.833-.94-1.665-.94zm.06.666c1.014 0 1.642.8 1.642 1.96v.558c0 1.192-.606 1.95-1.627 1.95-.902 0-1.567-.661-1.567-1.955v-.548c0-1.326.681-1.965 1.551-1.965zm5.86 5.133c1.224 0 1.943-.698 2.136-1.568h-.751c-.167.532-.612.929-1.364.929-.993 0-1.579-.773-1.579-1.949v-.134h3.775v-.467c0-1.579-.838-2.61-2.26-2.61-1.44 0-2.26 1.037-2.26 2.55v.64c0 1.589.864 2.609 2.302 2.609zm-1.558-3.366v-.017c0-1.02.591-1.771 1.515-1.771.912 0 1.514.751 1.514 1.771v.017h-3.029zm5.249-2.336h-.79v.634h.79v3.479c0 1.068.252 1.551 1.503 1.551.193 0 .381-.021.467-.043V10.4c-.086.01-.177.016-.285.016-.714 0-.95-.177-.95-.865V6.02h1.187v-.634h-1.187V3.984h-.735v1.401zm6.107 4.859h.021v.752h.72v-3.92c0-1.143-.833-1.788-2.003-1.788-1.289 0-1.949.677-2.019 1.638h.704c.075-.601.499-.993 1.288-.993.81 0 1.289.424 1.289 1.235V7.8h-1.552c-1.278.005-1.949.628-1.949 1.595 0 1.025.746 1.69 1.83 1.69.892 0 1.418-.407 1.67-.842zm-1.498.204c-.66 0-1.235-.36-1.235-1.074 0-.564.36-.966 1.208-.966h1.525v.714c0 .784-.65 1.326-1.498 1.326zm3.648.548h.74v-5.61h-.74v5.61zM336.139 4c0 .29.23.52.515.52.285 0 .521-.23.521-.52a.52.52 0 0 0-.52-.516.516.516 0 0 0-.516.516zm2.392 6.996h.74V3.28h-.74v7.716zm1.962-4.054c0 .993.832 1.3 1.89 1.536.859.182 1.466.322 1.466.993 0 .564-.478.982-1.375.982-.864 0-1.31-.43-1.374-.94h-.73c0 .93.794 1.574 2.05 1.574 1.251 0 2.164-.59 2.164-1.697 0-1.106-.918-1.358-1.954-1.562-.714-.15-1.407-.306-1.407-.961 0-.628.537-.94 1.251-.94.956 0 1.251.564 1.273.999h.703c0-.843-.617-1.638-1.95-1.638-1.067 0-2.007.527-2.007 1.654z" opacity=".7"/>
    <path fill="#26BED6" d="M389.625 3.667v7.329h1.45v-2.46h1.465c1.578 0 2.491-1.03 2.491-2.426 0-1.375-.902-2.443-2.475-2.443h-2.931zm1.444 1.154h1.208c.8 0 1.278.467 1.278 1.289 0 .993-.607 1.288-1.616 1.288h-.87V4.821zm7.701 5.482h.06v.693h1.336v-3.85c0-1.326-.998-1.938-2.308-1.938-1.643 0-2.255.88-2.298 1.83h1.32c.038-.456.371-.762.95-.762.597 0 .94.317.94.886v.516h-1.39c-1.32 0-2.03.655-2.03 1.675 0 1.074.763 1.729 1.874 1.729.838 0 1.321-.36 1.546-.779zm-1.09-.252c-.472 0-.923-.258-.923-.79 0-.434.306-.735.929-.735h1.084v.601c0 .553-.483.924-1.09.924zm8.379-4.752h-1.498l-1.24 4.419h-.054l-1.214-4.419h-1.562l1.976 5.707-.054.204c-.102.527-.397.736-1.041.736-.172 0-.37-.016-.462-.032v1.02c.172.037.478.059.72.059 1.234 0 1.921-.456 2.415-1.766l.145-.392c.011-.033 1.471-4.247 1.869-5.536zm.545 5.697h1.406V7.538c0-.79.451-1.149 1.004-1.149.575 0 .999.338.999 1.16v3.447h1.364V7.549c0-.73.38-1.16 1.009-1.16.601 0 .993.381.993 1.106v3.5h1.412V7.104c0-1.138-.682-1.895-1.857-1.895-.956 0-1.547.494-1.735.977h-.059c-.193-.585-.719-.977-1.594-.977-.854 0-1.337.494-1.493.907h-.075V5.3h-1.374v5.697zm11.605.102c1.524 0 2.265-.908 2.4-1.82h-1.31c-.119.461-.516.74-1.08.74-.72 0-1.208-.547-1.208-1.412v-.155h3.651v-.559c0-1.637-.96-2.695-2.513-2.695-1.497 0-2.523.988-2.523 2.658v.52c0 1.746 1.02 2.723 2.583 2.723zm-1.198-3.544v-.01c0-.73.457-1.295 1.15-1.295.687 0 1.132.559 1.132 1.294v.011h-2.282zm4.502 3.442h1.407v-3.34c0-.72.397-1.245 1.127-1.245.607 0 1.112.349 1.112 1.224v3.36h1.412V7.33c0-1.396-.811-2.121-1.97-2.121-.951 0-1.472.531-1.654.923h-.06V5.3h-1.374v5.697zm6.51-5.697h-.832v1.095h.805v2.991c0 1.165.467 1.643 1.885 1.643.284 0 .536-.027.644-.048V9.933c-.065.005-.183.01-.3.01-.586 0-.828-.171-.828-.74V6.393h1.106V5.3h-1.106V3.935h-1.374V5.3z"/>
    <path fill="#BDBDBD" d="M482.738 3.672v7.324h2.212c2.164 0 3.227-1.289 3.227-3.662 0-2.378-1.074-3.662-3.227-3.662h-2.212zm.751.688h1.44c1.67 0 2.47 1.025 2.47 2.974 0 1.949-.8 2.974-2.47 2.974h-1.44V4.36zm7.912.928c-1.504 0-2.363 1.085-2.363 2.604v.586c0 1.524.86 2.609 2.363 2.609 1.503 0 2.357-1.085 2.357-2.61v-.585c0-1.514-.86-2.604-2.357-2.604zm0 .655c1.009 0 1.616.747 1.616 1.992v.505c0 1.24-.607 1.987-1.616 1.987-1.015 0-1.622-.747-1.622-1.987v-.505c0-1.245.612-1.992 1.622-1.992zm3.535 5.053h.74V7.56c0-.822.463-1.59 1.515-1.59.891 0 1.455.559 1.455 1.52v3.506h.74V7.382c0-1.358-.853-2.094-2.007-2.094-.94 0-1.471.5-1.68.902h-.022v-.805h-.741v5.61zm7.847.09c1.224 0 1.943-.697 2.136-1.567h-.751c-.167.532-.612.929-1.364.929-.993 0-1.578-.773-1.578-1.949v-.134H505v-.467c0-1.579-.838-2.61-2.26-2.61-1.44 0-2.26 1.037-2.26 2.55v.64c0 1.589.864 2.609 2.303 2.609zm-1.557-3.365v-.017c0-1.02.59-1.771 1.514-1.771.912 0 1.514.751 1.514 1.771v.017h-3.028z"/>
    <path stroke="#26BED6" stroke-width=".4998" d="M349.861 7.497h12.995M434.828 7.497h22.99"/>
</svg>
