<svg xmlns="http://www.w3.org/2000/svg" width="506" height="15" fill="none" viewBox="0 0 506 15">
    <path fill="#26BED6" d="M12.995 4.756a.726.726 0 0 0-.217-.515l-1.052-1.03a.759.759 0 0 0-1.053 0L5.596 8.186 3.321 5.952a.759.759 0 0 0-1.052 0l-1.053 1.03A.726.726 0 0 0 1 7.497c0 .19.077.379.216.515l2.802 2.741 1.052 1.03a.759.759 0 0 0 1.053 0l1.052-1.03 5.603-5.482a.726.726 0 0 0 .217-.515zM105.958 4.756a.726.726 0 0 0-.217-.515l-1.052-1.03a.759.759 0 0 0-1.053 0L98.56 8.186l-2.276-2.234a.759.759 0 0 0-1.052 0l-1.053 1.03a.726.726 0 0 0-.216.515c0 .19.077.379.216.515l2.802 2.741 1.052 1.03a.759.759 0 0 0 1.053 0l1.052-1.03 5.603-5.482a.726.726 0 0 0 .217-.515z" opacity=".7"/>
    <circle cx="7.5" cy="7.5" r="7.5" fill="#BDBDBD" transform="matrix(.9996 0 0 .9996 184.927 0)"/>
    <path fill="#fff" d="M192.18 7.78h.79c.853 0 1.336.461 1.341 1.095.006.644-.488 1.127-1.331 1.127-.8 0-1.267-.456-1.326-1.047h-1.337c.027 1.176.864 2.186 2.625 2.186 1.557 0 2.835-.87 2.82-2.196-.017-1.176-.887-1.718-1.563-1.767v-.053c.558-.08 1.342-.655 1.326-1.692-.022-1.111-1.069-1.906-2.524-1.906-1.626 0-2.512.961-2.544 2.132h1.353c.032-.478.391-1.01 1.143-1.01.687 0 1.144.414 1.144.978.005.606-.467 1.036-1.165 1.036h-.752V7.78z"/>
    <circle cx="7.5" cy="7.5" r="7.5" fill="#BDBDBD" transform="matrix(.9996 0 0 .9996 91.964 0)"/>
    <path fill="#fff" d="M98.84 5.852v-.08c0-.586.43-1.085 1.112-1.085.623 0 1.085.403 1.085 1.026 0 .553-.339.987-.816 1.492l-2.663 2.889v.902h5.046V9.814h-3.07v-.042l1.653-1.858c.843-.902 1.289-1.482 1.289-2.336 0-1.197-.983-2.05-2.46-2.05-1.562 0-2.55 1.02-2.55 2.254v.07h1.375z"/>
    <circle cx="7.5" cy="7.5" r="7.5" fill="#26BED6" transform="scale(.9996)"/>
    <path fill="#fff" d="M8.644 10.996V3.667H7.242c-.322.172-1.455.902-1.772 1.133v1.326c.296-.204 1.46-.961 1.686-1.085h.049v5.955h1.439z"/>
    <circle cx="7.5" cy="7.5" r="7.5" fill="#BDBDBD" transform="matrix(.9996 0 0 .9996 277.89 0)"/>
    <path fill="#fff" d="M285.11 3.667c-.994 1.562-1.987 3.19-2.846 4.8v1.17h3.543v1.359h1.364V9.637h.897v-1.17h-.897v-4.8h-2.062zm-1.53 4.8V8.45a49.304 49.304 0 0 1 2.179-3.689h.048v3.705h-2.228z"/>
    <circle cx="7.5" cy="7.5" r="7.5" fill="#BDBDBD" transform="matrix(.9996 0 0 .9996 370.853 0)"/>
    <path fill="#fff" d="M375.459 9.025c.043 1.144.966 2.11 2.63 2.11 1.627 0 2.82-1.02 2.82-2.614 0-1.493-1.128-2.427-2.411-2.427-.854 0-1.407.386-1.574.628h-.048l.183-1.89h3.312v-1.17H375.9l-.349 4.31h1.272c.167-.359.58-.778 1.31-.778.763 0 1.359.548 1.359 1.391 0 .891-.693 1.407-1.364 1.407-.72 0-1.24-.37-1.331-.967h-1.337z"/>
    <circle cx="7.5" cy="7.5" r="7.5" fill="#BDBDBD" transform="matrix(.9996 0 0 .9996 463.816 0)"/>
    <path fill="#fff" d="M473.538 5.487c-.053-.902-.87-1.949-2.405-1.949-1.756 0-2.9 1.375-2.9 3.962 0 1.192.275 2.1.763 2.712.494.612 1.197.923 2.067.923 1.471 0 2.652-.929 2.652-2.555 0-1.547-1.127-2.39-2.324-2.39-.977 0-1.536.57-1.734 1.058h-.054c0-1.568.553-2.572 1.492-2.572.65 0 1.037.435 1.085.811h1.358zm-3.763 3.152c0-.849.569-1.359 1.283-1.359.671 0 1.278.478 1.278 1.359 0 .886-.59 1.353-1.273 1.353-.698 0-1.288-.494-1.288-1.353z"/>
    <path fill="#26BED6" d="M18.771 3.667v7.329h2.674c2.212 0 3.28-1.353 3.28-3.683 0-2.32-1.052-3.646-3.28-3.646h-2.674zm1.45 1.187h1.03c1.45 0 1.977.971 1.977 2.485 0 1.853-.757 2.47-1.976 2.47H20.22V4.854zm7.643 6.244c1.524 0 2.265-.908 2.4-1.82h-1.31c-.119.461-.516.74-1.08.74-.719 0-1.208-.547-1.208-1.412v-.155h3.651v-.559c0-1.637-.96-2.695-2.512-2.695-1.498 0-2.524.988-2.524 2.658v.52c0 1.746 1.02 2.723 2.583 2.723zm-1.198-3.544v-.01c0-.73.457-1.295 1.15-1.295.687 0 1.132.559 1.132 1.294v.011h-2.282zm7.584 3.517c1.294 0 2.169-.972 2.169-2.685v-.488c0-1.724-.88-2.674-2.148-2.674-.778 0-1.358.37-1.648.923h-.059V5.3h-1.39v7.587h1.417v-2.712h.059c.28.537.843.897 1.6.897zm-.435-1.128c-.752 0-1.235-.612-1.235-1.621V7.94c0-.988.478-1.59 1.219-1.59.73 0 1.176.57 1.176 1.595v.376c0 1.063-.473 1.621-1.16 1.621zm6.607.36h.059v.693h1.336v-3.85c0-1.326-.998-1.938-2.308-1.938-1.643 0-2.255.88-2.298 1.83h1.32c.038-.456.371-.762.951-.762.596 0 .94.317.94.886v.516H39.03c-1.32 0-2.03.655-2.03 1.675 0 1.074.763 1.729 1.874 1.729.838 0 1.321-.36 1.547-.779zm-1.09-.252c-.473 0-.924-.258-.924-.79 0-.434.306-.735.93-.735h1.084v.601c0 .553-.484.924-1.09.924zm3.524.945h1.445V7.747c0-.762.322-1.32 1.25-1.32.22 0 .446.016.559.048V5.251a2.395 2.395 0 0 0-.451-.038c-.779 0-1.203.505-1.332.87h-.059v-.784h-1.412v5.697zm4.556-5.697h-.832v1.095h.805v2.991c0 1.165.467 1.643 1.884 1.643.285 0 .537-.027.645-.048V9.933c-.065.005-.183.01-.3.01-.586 0-.828-.171-.828-.74V6.393h1.106V5.3h-1.106V3.935h-1.374V5.3z"/>
    <path stroke="#26BED6" stroke-width=".4998" d="M53.979 7.747h33.986M145.942 7.497h34.986"/>
    <path stroke="#BDBDBD" stroke-width=".4998" d="M241.904 7.497h31.987"/>
    <path fill="#BDBDBD" d="M115.435 3.672h-2.55v7.324h.751V7.989h1.928l1.428 3.007h.864l-1.54-3.163c.708-.23 1.412-.837 1.412-2.024 0-1.143-.736-2.137-2.293-2.137zm-1.799 3.635V4.354h1.702c.988 0 1.617.526 1.617 1.504 0 .918-.575 1.45-1.649 1.45h-1.67zm7.337 3.78c1.224 0 1.944-.698 2.137-1.568h-.752c-.166.532-.612.929-1.363.929-.994 0-1.579-.773-1.579-1.949v-.134h3.774v-.467c0-1.579-.837-2.61-2.26-2.61-1.439 0-2.26 1.037-2.26 2.55v.64c0 1.589.864 2.609 2.303 2.609zm-1.557-3.366v-.017c0-1.02.59-1.771 1.514-1.771.913 0 1.514.751 1.514 1.771v.017h-3.028zm5.248-2.336h-.789v.634h.79v3.479c0 1.068.252 1.551 1.502 1.551.194 0 .382-.021.468-.043V10.4c-.086.01-.178.016-.285.016-.714 0-.95-.177-.95-.865V6.02h1.186v-.634H125.4V3.984h-.736v1.401zm7.283 0h-.746v3.463c0 .934-.59 1.557-1.509 1.557-.81 0-1.428-.403-1.428-1.46v-3.56h-.74v3.77c0 1.277.837 1.932 1.98 1.932.93 0 1.471-.43 1.67-.891h.032v.8h.741v-5.61zm1.41 5.61h.74V7.534c0-.87.365-1.547 1.375-1.547.172 0 .354.011.435.027v-.692a3.287 3.287 0 0 0-.35-.022c-.848 0-1.266.462-1.438.848h-.022v-.762h-.74v5.61zm3.519 0h.74V7.56c0-.822.462-1.59 1.515-1.59.89 0 1.455.559 1.455 1.52v3.506h.74V7.382c0-1.358-.853-2.094-2.007-2.094-.94 0-1.472.5-1.68.902h-.022v-.805h-.741v5.61zM208.398 3.672h-2.55v7.324h.751V7.989h1.928l1.428 3.007h.864l-1.54-3.163c.708-.23 1.412-.837 1.412-2.024 0-1.143-.736-2.137-2.293-2.137zM206.6 7.307V4.354h1.702c.988 0 1.617.526 1.617 1.504 0 .918-.575 1.45-1.649 1.45h-1.67zm7.337 3.78c1.224 0 1.944-.698 2.137-1.568h-.752c-.166.532-.612.929-1.363.929-.994 0-1.579-.773-1.579-1.949v-.134h3.774v-.467c0-1.579-.837-2.61-2.26-2.61-1.439 0-2.26 1.037-2.26 2.55v.64c0 1.589.864 2.609 2.303 2.609zM212.38 7.72v-.017c0-1.02.59-1.771 1.514-1.771.913 0 1.514.751 1.514 1.771v.017h-3.028zm6.134 3.275h.79l2.034-5.61h-.746l-1.675 4.675h-.027l-1.595-4.676h-.778l1.997 5.61zm3.487 0h.741v-5.61h-.74v5.61zM221.855 4c0 .29.231.52.516.52.284 0 .52-.23.52-.52a.52.52 0 0 0-.52-.516.516.516 0 0 0-.516.516zm4.421 7.087c1.225 0 1.944-.698 2.137-1.568h-.751c-.167.532-.612.929-1.364.929-.993 0-1.579-.773-1.579-1.949v-.134h3.775v-.467c0-1.579-.838-2.61-2.26-2.61-1.44 0-2.26 1.037-2.26 2.55v.64c0 1.589.864 2.609 2.302 2.609zM224.72 7.72v-.017c0-1.02.591-1.771 1.514-1.771.913 0 1.515.751 1.515 1.771v.017h-3.029zm11.579-2.336h-.758l-1.122 4.612h-.032l-1.374-4.612h-.714l-1.37 4.612h-.037l-1.122-4.612h-.757l1.487 5.61h.768l1.38-4.53h.021l1.375 4.53h.767l1.488-5.61zM297.86 10.996l.79-2.309h2.84l.794 2.309h.784l-2.625-7.324h-.741l-2.631 7.324h.79zm2.223-6.395l1.192 3.469h-2.41L300.06 4.6h.022zm5.726.687c-1.364 0-2.234 1.058-2.234 2.588V8.5c0 1.536.8 2.583 2.234 2.583.859 0 1.428-.462 1.702-.988h.021v.902h.704V3.28h-.741v2.948h-.022c-.257-.483-.832-.94-1.664-.94zm.059.666c1.015 0 1.643.8 1.643 1.96v.558c0 1.192-.607 1.95-1.627 1.95-.902 0-1.568-.661-1.568-1.955v-.548c0-1.326.682-1.965 1.552-1.965zm5.79-.666c-1.363 0-2.233 1.058-2.233 2.588V8.5c0 1.536.8 2.583 2.233 2.583.86 0 1.428-.462 1.702-.988h.022v.902h.703V3.28h-.74v2.948h-.022c-.258-.483-.833-.94-1.665-.94zm.06.666c1.014 0 1.642.8 1.642 1.96v.558c0 1.192-.606 1.95-1.627 1.95-.902 0-1.567-.661-1.567-1.955v-.548c0-1.326.682-1.965 1.551-1.965zm7.698-.666c-1.363 0-2.233 1.058-2.233 2.588V8.5c0 1.536.8 2.583 2.233 2.583.86 0 1.428-.462 1.702-.988h.022v.902h.703V3.28h-.74v2.948h-.022c-.258-.483-.833-.94-1.665-.94zm.06.666c1.014 0 1.642.8 1.642 1.96v.558c0 1.192-.606 1.95-1.627 1.95-.902 0-1.567-.661-1.567-1.955v-.548c0-1.326.682-1.965 1.551-1.965zm5.86 5.133c1.224 0 1.943-.698 2.136-1.568h-.751c-.167.532-.612.929-1.364.929-.993 0-1.579-.773-1.579-1.949v-.134h3.775v-.467c0-1.579-.838-2.61-2.26-2.61-1.44 0-2.26 1.037-2.26 2.55v.64c0 1.589.864 2.609 2.302 2.609zm-1.558-3.366v-.017c0-1.02.591-1.771 1.515-1.771.912 0 1.514.751 1.514 1.771v.017h-3.029zm5.249-2.336h-.79v.634h.79v3.479c0 1.068.252 1.551 1.503 1.551.193 0 .381-.021.467-.043V10.4c-.086.01-.177.016-.285.016-.714 0-.95-.177-.95-.865V6.02h1.187v-.634h-1.187V3.984h-.735v1.401zm6.107 4.859h.021v.752h.72v-3.92c0-1.143-.833-1.788-2.003-1.788-1.289 0-1.949.677-2.019 1.638h.704c.075-.601.499-.993 1.288-.993.81 0 1.289.424 1.289 1.235V7.8h-1.552c-1.278.005-1.949.628-1.949 1.595 0 1.025.746 1.69 1.83 1.69.892 0 1.418-.407 1.67-.842zm-1.498.204c-.66 0-1.235-.36-1.235-1.074 0-.564.36-.966 1.208-.966h1.525v.714c0 .784-.65 1.326-1.498 1.326zm3.648.548h.74v-5.61h-.74v5.61zM337.139 4c0 .29.23.52.515.52.285 0 .521-.23.521-.52a.52.52 0 0 0-.52-.516.516.516 0 0 0-.516.516zm2.392 6.996h.74V3.28h-.74v7.716zm1.962-4.054c0 .993.832 1.3 1.89 1.536.859.182 1.466.322 1.466.993 0 .564-.478.982-1.375.982-.864 0-1.31-.43-1.374-.94h-.73c0 .93.794 1.574 2.05 1.574 1.251 0 2.164-.59 2.164-1.697 0-1.106-.918-1.358-1.954-1.562-.714-.15-1.407-.306-1.407-.961 0-.628.537-.94 1.251-.94.956 0 1.251.564 1.273.999h.703c0-.843-.617-1.638-1.949-1.638-1.068 0-2.008.527-2.008 1.654zM390.775 3.672v7.324h.751V8.129h1.804c1.391 0 2.298-.87 2.298-2.223 0-1.353-.907-2.234-2.298-2.234h-2.555zm.751.688h1.778c.988 0 1.557.569 1.557 1.546 0 1.219-.747 1.54-2.035 1.54h-1.3V4.36zm8.132 5.884h.021v.752h.72v-3.92c0-1.143-.833-1.788-2.003-1.788-1.289 0-1.949.677-2.019 1.638h.704c.075-.601.499-.993 1.288-.993.81 0 1.289.424 1.289 1.235V7.8h-1.552c-1.278.005-1.949.628-1.949 1.595 0 1.025.746 1.69 1.831 1.69.891 0 1.417-.407 1.67-.842zm-1.498.204c-.66 0-1.235-.36-1.235-1.074 0-.564.36-.966 1.208-.966h1.525v.714c0 .784-.65 1.326-1.498 1.326zm7.712-5.063h-.789l-1.627 4.757h-.027l-1.637-4.757h-.822l2.094 5.697-.118.375c-.177.596-.505.838-1.117.838-.14 0-.311-.01-.408-.022v.623c.15.032.317.043.478.043.854 0 1.37-.349 1.777-1.433l.172-.462 2.024-5.659zm.75 5.61h.74V7.41c0-.886.553-1.439 1.332-1.439.821 0 1.31.51 1.31 1.423v3.603h.735V7.398c0-.8.473-1.428 1.348-1.428.837 0 1.294.553 1.294 1.348v3.678h.74V7.173c0-1.176-.719-1.885-1.879-1.885-.95 0-1.53.484-1.723.961h-.032c-.21-.563-.736-.96-1.638-.96-.789 0-1.272.44-1.45.826h-.037v-.73h-.74v5.61zm10.949.092c1.224 0 1.944-.698 2.137-1.568h-.752c-.166.532-.612.929-1.363.929-.994 0-1.579-.773-1.579-1.949v-.134h3.774v-.467c0-1.579-.837-2.61-2.26-2.61-1.439 0-2.26 1.037-2.26 2.55v.64c0 1.589.864 2.609 2.303 2.609zm-1.557-3.366v-.017c0-1.02.59-1.771 1.514-1.771.913 0 1.514.751 1.514 1.771v.017h-3.028zm4.926 3.275h.74V7.56c0-.822.463-1.59 1.515-1.59.891 0 1.455.559 1.455 1.52v3.506h.74V7.382c0-1.358-.853-2.094-2.007-2.094-.94 0-1.471.5-1.68.902h-.022v-.805h-.741v5.61zm6.096-5.61h-.789v.633h.79v3.479c0 1.068.252 1.551 1.503 1.551.193 0 .381-.021.467-.043V10.4c-.086.01-.177.016-.285.016-.714 0-.95-.177-.95-.865V6.02h1.187v-.634h-1.187V3.984h-.736v1.401zM483.738 3.672v7.324h2.212c2.164 0 3.227-1.289 3.227-3.662 0-2.378-1.074-3.662-3.227-3.662h-2.212zm.751.688h1.44c1.67 0 2.47 1.025 2.47 2.974 0 1.949-.8 2.974-2.47 2.974h-1.44V4.36zm7.912.928c-1.504 0-2.363 1.085-2.363 2.604v.586c0 1.524.86 2.609 2.363 2.609 1.503 0 2.357-1.085 2.357-2.61v-.585c0-1.514-.86-2.604-2.357-2.604zm0 .655c1.009 0 1.616.747 1.616 1.992v.505c0 1.24-.607 1.987-1.616 1.987-1.015 0-1.622-.747-1.622-1.987v-.505c0-1.245.612-1.992 1.622-1.992zm3.535 5.053h.74V7.56c0-.822.463-1.59 1.515-1.59.891 0 1.455.559 1.455 1.52v3.506h.74V7.382c0-1.358-.853-2.094-2.007-2.094-.94 0-1.471.5-1.68.902h-.022v-.805h-.741v5.61zm7.847.09c1.224 0 1.943-.697 2.136-1.567h-.751c-.167.532-.612.929-1.364.929-.993 0-1.578-.773-1.578-1.949v-.134H506v-.467c0-1.579-.838-2.61-2.26-2.61-1.44 0-2.26 1.037-2.26 2.55v.64c0 1.589.864 2.609 2.303 2.609zm-1.557-3.365v-.017c0-1.02.59-1.771 1.514-1.771.912 0 1.514.751 1.514 1.771v.017h-3.028z"/>
    <path stroke="#BDBDBD" stroke-width=".4998" d="M435.828 7.497h22.99"/>
</svg>
