<svg xmlns="http://www.w3.org/2000/svg" width="16" height="16" fill="none" viewBox="0 0 16 16">
    <g clip-path="url(#a)">
        <path fill="#828282" fill-rule="evenodd" d="M5.136 2.116a.98.98 0 0 0-.98.981v.02h-3.02a.98.98 0 0 0-.98.98v8.039c0 .542.439.98.98.98h14.039a.98.98 0 0 0 .98-.98V4.097a.98.98 0 0 0-.98-.98h-3.02v-.02a.98.98 0 0 0-.98-.98H5.136zm3.02 3.368a2.632 2.632 0 1 0 0 5.265 2.632 2.632 0 0 0 0-5.265zM4.788 8.116a3.368 3.368 0 1 1 6.735 0 3.368 3.368 0 0 1-6.735 0zm8.867-2a.5.5 0 1 0 0-1 .5.5 0 0 0 0 1z" clip-rule="evenodd"/>
    </g>
    <defs>
        <clipPath id="a">
            <path fill="#fff" d="M0 0h16v16H0z"/>
        </clipPath>
    </defs>
</svg>
