<svg xmlns="http://www.w3.org/2000/svg" width="24" height="32" fill="none" viewBox="0 0 24 32">
    <path fill="#26BED6" d="M12.21.64C5.71.64.42 5.927.42 12.428c0 2.755.95 5.291 2.54 7.3l9.25 11.632 9.251-11.631A11.732 11.732 0 0 0 24 12.429c0-6.5-5.289-11.79-11.79-11.79z"/>
    <path fill="#fff" d="M9.722 8.08L5.586 20.205l11.882-4.8"/>
    <path fill="#fff" stroke="#26BED6" stroke-linecap="round" stroke-linejoin="round" stroke-miterlimit="10" stroke-width=".662" d="M17.524 15.326c.673-.712-.513-2.926-2.65-4.945-2.136-2.02-4.413-3.08-5.086-2.37-.673.712.513 2.926 2.65 4.946 2.135 2.02 4.413 3.08 5.086 2.369z"/>
    <path stroke="#fff" stroke-linecap="round" stroke-linejoin="round" stroke-miterlimit="10" stroke-width=".662" d="M15.374 14.165s3.532-1.462 4.332.47M11.209 10.663s4.772-3.502 1.269-4.578M18.806 8.937l-1.14-.224-.83.814-.14-1.153-1.03-.538 1.055-.49.193-1.145.792.85 1.147-.169-.563 1.015.516 1.04zM18.147 12.456a.897.897 0 1 0 0-1.793.897.897 0 0 0 0 1.793z"/>
</svg>
