<svg width="24" height="24" viewBox="0 0 24 24" fill="none" xmlns="http://www.w3.org/2000/svg">
<g clip-path="url(#clip0)">
<path d="M8.24405 8.42315C8.31636 8.47241 8.40123 8.49844 8.48943 8.49844H8.49054C8.73161 8.49844 8.92778 8.3024 8.92778 8.06147C8.92778 8.01948 8.92189 7.97806 8.91023 7.93802C8.64744 6.78734 8.77234 5.86011 9.28141 5.18186C9.87479 4.39126 10.1377 3.37701 9.98457 2.46879C9.84947 1.66466 9.41715 0.996266 8.7348 0.536259C8.58859 0.437165 8.38742 0.438067 8.24183 0.538271C8.09305 0.640695 8.02317 0.82084 8.06411 0.998209C8.34786 2.20864 8.09021 2.97481 7.44402 4.13728C7.04473 4.85543 6.88165 5.66199 6.98477 6.40838C7.10135 7.25165 7.53742 7.94877 8.24405 8.42315Z" fill="white"/>
<path d="M11.9702 8.22882C12.0385 8.27553 12.1182 8.30016 12.2008 8.30016H12.2013C12.4276 8.30016 12.6117 8.11599 12.6117 7.88963C12.6117 7.85105 12.6062 7.81281 12.5955 7.77569C12.396 6.89869 12.4897 6.19428 12.8742 5.68202C13.3487 5.04999 13.5588 4.23816 13.4362 3.51057C13.3275 2.86383 12.9797 2.32603 12.4305 1.9554C12.2937 1.86297 12.1086 1.86179 11.967 1.95824C11.8288 2.05414 11.7626 2.22832 11.8017 2.38911C12.0181 3.31252 11.8202 3.89959 11.324 4.79171C11.0049 5.36573 10.8747 6.01088 10.9574 6.60814C11.0511 7.28674 11.4021 7.84765 11.9702 8.22882Z" fill="white"/>
<path d="M23.6269 11.0323C23.3546 10.7119 22.9651 10.5354 22.53 10.5354H20.4169C20.4494 10.1703 20.391 9.69311 20.1235 9.3782C19.9366 9.15823 19.6702 9.04199 19.3529 9.04199H1.18586C0.715377 9.04199 0.444604 9.24427 0.300336 9.41394C0.00409596 9.76229 -0.0365685 10.2847 0.0240812 10.6575C0.524129 13.7298 1.60437 16.5204 3.0658 18.5154C3.94522 19.7159 4.94725 20.6358 6.06449 21.2723C5.90065 21.5061 5.80364 21.79 5.80364 22.0965C5.80364 22.8909 6.4499 23.5371 7.24431 23.5371H13.1809C13.9753 23.5371 14.6216 22.8909 14.6216 22.0965C14.6216 21.7952 14.5283 21.5155 14.3695 21.284C15.2678 20.7774 16.0896 20.0894 16.8309 19.2211C20.374 18.8922 23.4755 15.4959 23.9759 12.4427C24.008 12.2462 24.078 11.5635 23.6269 11.0323ZM18.596 16.5068C19.2442 15.2018 19.691 13.8493 19.9989 12.6173H21.8036C21.3703 14.0871 20.1232 15.6496 18.596 16.5068Z" fill="white"/>
</g>
<defs>
<clipPath id="clip0">
<rect width="24" height="24" fill="white"/>
</clipPath>
</defs>
</svg>
