<svg xmlns="http://www.w3.org/2000/svg" width="16" height="16" fill="none" viewBox="0 0 16 16">
    <g fill="#828282" clip-path="url(#a)">
        <path d="M5.496 5.616a.292.292 0 0 0 .444-.323c-.175-.768-.092-1.386.248-1.838.395-.527.57-1.204.468-1.809A1.902 1.902 0 0 0 5.823.358a.29.29 0 1 0-.447.308c.19.807.018 1.317-.413 2.092a2.457 2.457 0 0 0-.306 1.514 1.89 1.89 0 0 0 .84 1.344zM7.98 5.486a.274.274 0 0 0 .417-.302c-.133-.585-.07-1.054.186-1.396.316-.421.456-.962.374-1.447a1.531 1.531 0 0 0-.67-1.037.274.274 0 0 0-.42.29c.145.614.013 1.006-.318 1.6-.212.383-.3.813-.244 1.212.062.452.296.826.675 1.08zM15.751 7.355a.942.942 0 0 0-.731-.331h-1.409c.022-.244-.017-.562-.195-.772a.65.65 0 0 0-.514-.224H.791c-.314 0-.495.135-.59.248-.198.232-.225.58-.185.83.333 2.047 1.054 3.908 2.028 5.238.586.8 1.254 1.413 1.999 1.838a.961.961 0 0 0 .787 1.51h3.957a.961.961 0 0 0 .793-1.502 6.105 6.105 0 0 0 1.64-1.376c2.363-.219 4.43-2.483 4.764-4.519.021-.13.068-.586-.233-.94zm-3.354 3.65c.432-.87.73-1.772.936-2.593h1.203c-.29.98-1.12 2.021-2.139 2.593z"/>
    </g>
    <defs>
        <clipPath id="a">
            <path fill="#fff" d="M0 0h16v16H0z"/>
        </clipPath>
    </defs>
</svg>
