<svg width="48" height="48" viewBox="0 0 48 48" fill="none" xmlns="http://www.w3.org/2000/svg">
<circle cx="24" cy="24" r="24" fill="#26BED6"/>
<g clip-path="url(#clip0)">
<path d="M16.8813 29.5171L16.8744 29.5046L17.622 29.5046C18.0873 29.5046 18.4647 29.1543 18.4911 28.6953C18.498 28.6797 18.4989 28.6778 18.4989 28.6598L18.4989 23.5064L27.5924 23.5064L27.1601 23.9458C26.9951 24.1095 26.9046 24.333 26.9046 24.5658C26.9046 24.7992 26.9953 25.0202 27.1601 25.184L27.6842 25.7061C28.0249 26.0449 28.5797 26.0455 28.9206 25.7068L31.7448 22.9003C31.91 22.736 32.0008 22.5169 32 22.2832C32.0008 22.0492 31.91 21.8296 31.7448 21.6655L28.7981 18.7369C28.6276 18.5672 28.4037 18.4828 28.1798 18.4828C27.9559 18.4828 27.7321 18.5674 27.5617 18.7369L27.0377 19.2576C26.8729 19.4215 26.7819 19.64 26.7822 19.8731C26.7822 20.1064 26.8729 20.3084 27.0377 20.4719L27.5927 21.0071L17.2562 21.0071C16.5672 21.0071 16 21.5977 16 22.2831L16 28.6598C16 29.1418 16.3988 29.5171 16.8813 29.5171Z" fill="white"/>
</g>
<defs>
<clipPath id="clip0">
<rect width="16" height="16" fill="white" transform="translate(32 32) rotate(-180)"/>
</clipPath>
</defs>
</svg>
