<svg xmlns="http://www.w3.org/2000/svg" width="32" height="43" fill="none" viewBox="0 0 32 43">
    <path fill="#fff" stroke="#003C71" stroke-width="1.302" d="M.651 17.118C.651 8.586 7.541 1.651 16 1.651c8.458 0 15.349 6.935 15.349 15.467 0 3.614-1.236 6.942-3.306 9.578L16 41.95 3.957 26.697v-.001A15.463 15.463 0 0 1 .65 17.118z"/>
    <path fill="#003C71" d="M23.737 8.263L4.263 18.73l6.086 2.354 13.388-12.82z"/>
    <path fill="#003C71" d="M23.737 8.263L13.675 22.382l9.98 3.57.082-17.689z"/>
    <path fill="#003C71" d="M10.027 20.758l4.827 5.683-.69-4.303"/>
    <path fill="#fff" d="M10.374 20.463a.456.456 0 0 0-.695.59l.695-.59zm4.48 5.978l-.348.295a.456.456 0 0 0 .798-.367l-.45.072zm-5.175-5.387l4.827 5.682.696-.59-4.828-5.683-.695.59zm5.625 5.315l-.69-4.304-.9.145.69 4.303.9-.144z"/>
</svg>
