<svg xmlns="http://www.w3.org/2000/svg" width="24" height="32" fill="none" viewBox="0 0 24 32">
    <path fill="#219653" d="M12.21.64C5.71.64.42 5.927.42 12.428c0 2.755.95 5.291 2.54 7.3l9.25 11.632 9.251-11.631A11.732 11.732 0 0 0 24 12.429c0-6.5-5.289-11.79-11.79-11.79z"/>
    <path fill="#fff" d="M17.441 5.82l-14.12 7.59 4.412 1.706 9.708-9.296z"/>
    <path fill="#fff" d="M17.44 5.82l-7.295 10.237 7.237 2.589.059-12.826z"/>
    <path fill="#fff" d="M7.761 14.297a.33.33 0 1 0-.522.406l.522-.406zM11 19l-.261.203a.331.331 0 0 0 .587-.257L11 19zm-3.761-4.297l3.5 4.5.522-.406-3.5-4.5-.522.406zm4.087 4.243l-.5-3-.652.108.5 3 .652-.108z"/>
</svg>
